<svg width="400" height="400" viewBox="0 0 400 400" fill="none" xmlns="http://www.w3.org/2000/svg">
<mask id="mask0_18_2" style="mask-type:luminance" maskUnits="userSpaceOnUse" x="99" y="84" width="71" height="70">
<path fill-rule="evenodd" clip-rule="evenodd" d="M103.095 84H164.095C168.095 84 169.095 85 169.095 89V149C169.095 153 168.095 154 164.095 154H103.095C100.095 154 99.0945 153 99.0945 149V89C99.0945 85 100.095 84 103.095 84Z" fill="white"/>
</mask>
<g mask="url(#mask0_18_2)">
<path fill-rule="evenodd" clip-rule="evenodd" d="M99.0945 84H169.095V154H99.0945V84Z" fill="url(#paint0_linear_18_2)"/>
<path fill-rule="evenodd" clip-rule="evenodd" d="M103.095 85H164.095C166.762 85 168.428 85.667 169.095 87V84H99.0945V87C99.7615 85.667 101.095 85 103.095 85Z" fill="white" fill-opacity="0.383"/>
<path opacity="0.324" fill-rule="evenodd" clip-rule="evenodd" d="M103.095 154C101.095 154 99.0945 153.852 99.0945 149.85V123.197L126.095 99L137.095 123.84L143.095 123.906L154.208 123.84L158.418 125.952L141.606 154H103.095Z" fill="#393939"/>
<path fill-rule="evenodd" clip-rule="evenodd" d="M103.095 153H164.095C166.762 153 168.428 152 169.095 150V154H99.0945V150C99.7615 152 101.095 153 103.095 153Z" fill="black" fill-opacity="0.383"/>
<path opacity="0.3" d="M154.348 120.993C151.118 120.993 149.719 123.403 147.964 123.403C143.298 123.403 147.545 109.953 147.545 109.953C147.545 109.953 132.275 116.059 132.275 109.702C132.275 106.967 135.097 106.172 135.097 103.139C135.097 100.43 132.91 98.963 130.316 98.963C127.62 98.963 125.153 100.405 125.153 103.263C125.153 106.421 127.62 107.788 127.62 109.503C127.62 114.816 113.936 111.69 113.936 111.69V137.122C113.936 137.122 127.834 140.255 127.834 134.935C127.834 133.22 124.722 131.874 124.722 128.717C124.722 125.858 126.997 124.417 129.668 124.417C132.288 124.417 134.475 125.883 134.475 128.593C134.475 131.625 131.652 132.421 131.652 135.155C131.652 139.795 141.74 137.118 145.752 137.118C145.752 137.118 143.05 127.953 147.761 127.953C150.558 127.953 151.372 130.712 154.475 130.712C157.248 130.712 158.748 128.574 158.748 126.014C158.748 123.404 157.273 120.993 154.348 120.993Z" fill="black"/>
<path d="M154.348 118.993C151.118 118.993 149.719 121.403 147.964 121.403C143.298 121.403 149.486 109.648 147.545 107.953C145.605 106.258 132.275 114.059 132.275 107.702C132.275 104.967 135.097 104.172 135.097 101.139C135.097 98.43 132.91 96.963 130.316 96.963C127.62 96.963 125.153 98.405 125.153 101.263C125.153 104.421 127.62 105.788 127.62 107.503C127.62 112.816 113.936 109.69 113.936 109.69V135.122C113.936 135.122 127.834 138.255 127.834 132.935C127.834 131.22 124.722 129.874 124.722 126.717C124.722 123.858 126.997 122.417 129.668 122.417C132.288 122.417 134.475 123.883 134.475 126.593C134.475 129.625 131.652 130.421 131.652 133.155C131.652 137.795 144.329 135.755 145.752 135.118C147.174 134.482 143.05 125.953 147.761 125.953C150.558 125.953 151.372 128.712 154.475 128.712C157.248 128.712 158.748 126.574 158.748 124.014C158.748 121.404 157.273 118.993 154.348 118.993Z" fill="white"/>
</g>
<mask id="mask1_18_2" style="mask-type:luminance" maskUnits="userSpaceOnUse" x="99" y="206" width="71" height="71">
<path fill-rule="evenodd" clip-rule="evenodd" d="M103.095 206.535H164.095C168.095 206.535 169.095 207.535 169.095 211.535V271.535C169.095 275.535 168.095 276.535 164.095 276.535H103.095C100.095 276.535 99.0945 275.535 99.0945 271.535V211.535C99.0945 207.535 100.095 206.535 103.095 206.535Z" fill="white"/>
</mask>
<g mask="url(#mask1_18_2)">
<path fill-rule="evenodd" clip-rule="evenodd" d="M99.0945 206.535H169.095V276.535H99.0945V206.535Z" fill="url(#paint1_linear_18_2)"/>
<path fill-rule="evenodd" clip-rule="evenodd" d="M103.095 207.535H164.095C166.762 207.535 168.428 208.202 169.095 209.535V206.535H99.0945V209.535C99.7615 208.202 101.095 207.535 103.095 207.535Z" fill="white" fill-opacity="0.383"/>
<path opacity="0.324" fill-rule="evenodd" clip-rule="evenodd" d="M141.583 275.535H103.095C101.095 275.535 99.0945 274.535 99.0945 271.535V247.883L120.033 225.533L134.736 236.993L130.535 242.176L129.283 249.596L135.689 242.485L145.095 239.535L155.053 255.379L141.583 275.535Z" fill="#393939"/>
<path fill-rule="evenodd" clip-rule="evenodd" d="M103.095 275.535H164.095C166.762 275.535 168.428 274.535 169.095 272.535V276.535H99.0945V272.535C99.7615 274.535 101.095 275.535 103.095 275.535Z" fill="black" fill-opacity="0.383"/>
<path opacity="0.3" d="M127.373 223.77C132.566 223.77 136.777 228.041 136.777 233.31C136.777 238.58 132.567 242.851 127.373 242.851C122.179 242.851 117.969 238.58 117.969 233.311C117.969 228.041 122.179 223.77 127.373 223.77ZM133.391 243.262C133.391 242.849 124.213 245.109 120.791 242.612L116.601 243.675C114.089 244.313 112.326 246.602 112.326 249.229V251.438C112.326 253.018 113.59 254.3 115.148 254.3H130.614C128.762 247.96 133.391 243.675 133.391 243.262ZM144.595 240.329C138.129 240.329 132.889 245.569 132.889 252.035C132.889 258.501 138.129 263.741 144.595 263.741C151.061 263.741 156.301 258.501 156.301 252.035C156.301 245.569 151.061 240.329 144.595 240.329ZM147.29 256.854L143.127 253.829C143.055 253.776 142.997 253.707 142.957 253.627C142.916 253.548 142.896 253.46 142.896 253.371V245.427C142.896 245.115 143.151 244.861 143.462 244.861H145.728C146.039 244.861 146.294 245.115 146.294 245.427V251.927L149.291 254.107C149.351 254.151 149.402 254.206 149.441 254.27C149.48 254.334 149.505 254.404 149.517 254.478C149.528 254.552 149.525 254.627 149.507 254.699C149.49 254.772 149.458 254.84 149.414 254.9L148.084 256.731C147.994 256.852 147.861 256.933 147.712 256.956C147.563 256.979 147.411 256.943 147.29 256.854Z" fill="black"/>
<path d="M127.373 221.77C132.566 221.77 136.777 226.041 136.777 231.31C136.777 236.58 132.567 240.851 127.373 240.851C122.179 240.851 117.969 236.58 117.969 231.311C117.969 226.041 122.179 221.77 127.373 221.77ZM133.391 241.262C133.391 240.849 124.213 243.109 120.791 240.612L116.601 241.675C114.089 242.313 112.326 244.602 112.326 247.229V249.438C112.326 251.018 113.59 252.3 115.148 252.3H130.614C128.762 245.96 133.391 241.675 133.391 241.262ZM144.595 238.329C138.129 238.329 132.889 243.569 132.889 250.035C132.889 256.501 138.129 261.741 144.595 261.741C151.061 261.741 156.301 256.501 156.301 250.035C156.301 243.569 151.061 238.329 144.595 238.329ZM147.29 254.854L143.127 251.829C143.055 251.776 142.997 251.707 142.957 251.627C142.916 251.548 142.896 251.46 142.896 251.371V243.427C142.896 243.115 143.151 242.861 143.462 242.861H145.728C146.039 242.861 146.294 243.115 146.294 243.427V249.927L149.291 252.107C149.351 252.151 149.402 252.206 149.441 252.27C149.48 252.334 149.505 252.404 149.517 252.478C149.528 252.552 149.525 252.627 149.507 252.699C149.49 252.772 149.458 252.84 149.414 252.9L148.084 254.731C147.994 254.852 147.861 254.933 147.712 254.956C147.563 254.979 147.411 254.943 147.29 254.854Z" fill="white"/>
</g>
<mask id="mask2_18_2" style="mask-type:luminance" maskUnits="userSpaceOnUse" x="234" y="206" width="71" height="71">
<path fill-rule="evenodd" clip-rule="evenodd" d="M238.898 206.735C271.314 206.735 292.981 206.735 299.898 206.735C303.898 206.735 304.898 207.735 304.898 211.735C304.898 249.784 304.898 269.159 304.898 271.735C304.898 275.735 303.898 276.735 299.898 276.735C295.898 276.735 243.898 276.735 238.898 276.735C235.898 276.735 234.898 275.735 234.898 271.735C234.898 269.203 234.898 248.536 234.898 211.735C234.898 207.735 235.898 206.735 238.898 206.735Z" fill="white"/>
</mask>
<g mask="url(#mask2_18_2)">
<path d="M304.898 206.735H234.898V276.735H304.898V206.735Z" fill="url(#paint2_linear_18_2)"/>
<path fill-rule="evenodd" clip-rule="evenodd" d="M238.898 207.735H299.898C302.564 207.735 304.231 208.402 304.898 209.735C304.898 207.068 304.898 206.068 304.898 206.735H234.898C234.898 206.068 234.898 207.068 234.898 209.735C235.564 208.402 236.898 207.735 238.898 207.735Z" fill="white" fill-opacity="0.383"/>
<path opacity="0.324" fill-rule="evenodd" clip-rule="evenodd" d="M278.542 276.735H238.898C236.898 276.735 234.898 276.586 234.898 272.575V248.055L254.898 224.735L270.898 234.095L265.567 241.12L266.867 240.779L263.35 244.042V249.248L274.099 236.573L277.088 238.979L281.734 234.095L285.898 239.295L295.27 251.764L278.542 276.735Z" fill="#393939"/>
<path fill-rule="evenodd" clip-rule="evenodd" d="M238.898 275.735H299.898C302.564 275.735 304.231 274.735 304.898 272.735C304.898 275.402 304.898 276.735 304.898 276.735H234.898C234.898 276.735 234.898 275.402 234.898 272.735C235.564 274.735 236.898 275.735 238.898 275.735Z" fill="black" fill-opacity="0.383"/>
<path opacity="0.3" d="M262.175 222.97C267.369 222.97 271.579 227.241 271.579 232.511C271.579 237.78 267.369 242.051 262.175 242.051C256.982 242.051 252.771 237.78 252.771 232.511C252.771 227.241 256.982 222.97 262.175 222.97ZM266.898 242.735C266.898 242.322 259.015 244.309 255.594 241.812L251.403 242.875C248.891 243.513 247.129 245.802 247.129 248.429V250.638C247.129 252.219 248.392 253.5 249.95 253.5C260.261 253.5 265.416 253.5 265.416 253.5C263.564 247.159 266.898 243.148 266.898 242.735ZM283.409 236.164L284.78 239.515C285.006 240.069 285.675 240.286 286.183 239.972L289.262 238.066C290.094 237.551 291.131 238.305 290.899 239.255L290.038 242.772C289.896 243.353 290.309 243.922 290.905 243.966L294.516 244.234C295.492 244.306 295.888 245.526 295.141 246.158L292.378 248.497C291.921 248.883 291.921 249.587 292.378 249.973L295.141 252.312C295.888 252.944 295.492 254.164 294.516 254.236L290.905 254.504C290.309 254.548 289.896 255.118 290.038 255.698L290.899 259.215C291.131 260.165 290.094 260.919 289.262 260.404L286.183 258.499C285.675 258.184 285.006 258.401 284.78 258.955L283.409 262.306C283.039 263.211 281.756 263.211 281.386 262.306L280.015 258.955C279.789 258.401 279.12 258.184 278.612 258.499L275.533 260.404C274.701 260.919 273.664 260.165 273.896 259.215L274.757 255.698C274.9 255.118 274.486 254.548 273.89 254.504L270.279 254.236C269.303 254.164 268.907 252.944 269.654 252.312L272.418 249.973C272.874 249.587 272.874 248.883 272.418 248.497L269.654 246.158C268.907 245.526 269.303 244.306 270.279 244.234L273.89 243.966C274.486 243.922 274.899 243.353 274.757 242.772L273.896 239.255C273.664 238.305 274.701 237.551 275.533 238.066L278.612 239.972C279.12 240.286 279.789 240.069 280.015 239.515L281.386 236.164C281.756 235.259 283.039 235.259 283.409 236.164ZM289.702 249.235C289.702 245.207 286.425 241.93 282.398 241.93C278.37 241.93 275.093 245.207 275.093 249.235C275.093 253.263 278.37 256.54 282.398 256.54C286.425 256.54 289.702 253.263 289.702 249.235ZM287.983 249.235C287.983 252.315 285.478 254.821 282.398 254.821C279.317 254.821 276.812 252.315 276.812 249.235C276.812 246.155 279.317 243.649 282.398 243.649C285.478 243.649 287.983 246.155 287.983 249.235Z" fill="black"/>
<path d="M262.175 220.97C267.369 220.97 271.579 225.241 271.579 230.511C271.579 235.78 267.369 240.051 262.175 240.051C256.982 240.051 252.771 235.78 252.771 230.511C252.771 225.241 256.982 220.97 262.175 220.97ZM266.898 240.735C266.898 240.322 259.015 242.309 255.594 239.812L251.403 240.875C248.891 241.513 247.129 243.802 247.129 246.429V248.638C247.129 250.219 248.392 251.5 249.95 251.5C260.261 251.5 265.416 251.5 265.416 251.5C263.564 245.159 266.898 241.148 266.898 240.735ZM283.409 234.164L284.78 237.515C285.006 238.069 285.675 238.286 286.183 237.972L289.262 236.066C290.094 235.551 291.131 236.305 290.899 237.255L290.038 240.772C289.896 241.353 290.309 241.922 290.905 241.966L294.516 242.234C295.492 242.306 295.888 243.526 295.141 244.158L292.378 246.497C291.921 246.883 291.921 247.587 292.378 247.973L295.141 250.312C295.888 250.944 295.492 252.164 294.516 252.236L290.905 252.504C290.309 252.548 289.896 253.118 290.038 253.698L290.899 257.215C291.131 258.165 290.094 258.919 289.262 258.404L286.183 256.499C285.675 256.184 285.006 256.401 284.78 256.955L283.409 260.306C283.039 261.211 281.756 261.211 281.386 260.306L280.015 256.955C279.789 256.401 279.12 256.184 278.612 256.499L275.533 258.404C274.701 258.919 273.664 258.165 273.896 257.215L274.757 253.698C274.9 253.118 274.486 252.548 273.89 252.504L270.279 252.236C269.303 252.164 268.907 250.944 269.654 250.312L272.418 247.973C272.874 247.587 272.874 246.883 272.418 246.497L269.654 244.158C268.907 243.526 269.303 242.306 270.279 242.234L273.89 241.966C274.486 241.922 274.899 241.353 274.757 240.772L273.896 237.255C273.664 236.305 274.701 235.551 275.533 236.066L278.612 237.972C279.12 238.286 279.789 238.069 280.015 237.515L281.386 234.164C281.756 233.259 283.039 233.259 283.409 234.164ZM289.702 247.235C289.702 243.207 286.425 239.93 282.398 239.93C278.37 239.93 275.093 243.207 275.093 247.235C275.093 251.263 278.37 254.54 282.398 254.54C286.425 254.54 289.702 251.263 289.702 247.235ZM287.983 247.235C287.983 250.315 285.478 252.821 282.398 252.821C279.317 252.821 276.812 250.315 276.812 247.235C276.812 244.155 279.317 241.649 282.398 241.649C285.478 241.649 287.983 244.155 287.983 247.235Z" fill="white"/>
</g>
<mask id="mask3_18_2" style="mask-type:luminance" maskUnits="userSpaceOnUse" x="228" y="84" width="71" height="71">
<path fill-rule="evenodd" clip-rule="evenodd" d="M232.745 84.2C265.161 84.2 286.829 84.2 293.745 84.2C297.745 84.2 298.745 85.2 298.745 89.2C298.745 127.249 298.745 146.624 298.745 149.2C298.745 153.2 297.745 154.2 293.745 154.2C289.745 154.2 237.745 154.2 232.745 154.2C229.745 154.2 228.745 153.2 228.745 149.2C228.745 146.668 228.745 126.001 228.745 89.2C228.745 85.2 229.745 84.2 232.745 84.2Z" fill="white"/>
</mask>
<g mask="url(#mask3_18_2)">
<path d="M298.745 84.2H228.745V154.2H298.745V84.2Z" fill="url(#paint3_linear_18_2)"/>
<path fill-rule="evenodd" clip-rule="evenodd" d="M232.745 85.2H293.745C296.412 85.2 298.079 85.8667 298.745 87.2C298.745 84.5333 298.745 83.5333 298.745 84.2H228.745C228.745 83.5333 228.745 84.5333 228.745 87.2C229.412 85.8667 230.745 85.2 232.745 85.2Z" fill="white" fill-opacity="0.383"/>
<path opacity="0.324" fill-rule="evenodd" clip-rule="evenodd" d="M232.745 154.2C230.745 154.2 228.745 154.052 228.745 150.06V130.393L258.667 95.2H263.745V106.586L277.745 108.656L282.745 130.393L266.466 154.2H232.745Z" fill="#393939"/>
<path fill-rule="evenodd" clip-rule="evenodd" d="M232.745 153.2H293.745C296.412 153.2 298.079 152.2 298.745 150.2C298.745 152.867 298.745 154.2 298.745 154.2H228.745C228.745 154.2 228.745 152.867 228.745 150.2C229.412 152.2 230.745 153.2 232.745 153.2Z" fill="black" fill-opacity="0.383"/>
<path opacity="0.3" fill-rule="evenodd" clip-rule="evenodd" d="M266.662 114.304V126.263C266.662 126.512 266.582 126.716 266.422 126.876C266.262 127.037 266.057 127.117 265.808 127.117H257.266C257.017 127.117 256.812 127.037 256.652 126.876C256.492 126.716 256.412 126.512 256.412 126.263V124.554C256.412 124.305 256.492 124.1 256.652 123.94C256.812 123.78 257.017 123.7 257.266 123.7H263.245V114.304C263.245 114.055 263.325 113.85 263.485 113.69C263.646 113.53 263.85 113.45 264.099 113.45H265.808C266.057 113.45 266.262 113.53 266.422 113.69C266.582 113.85 266.662 114.055 266.662 114.304ZM277.766 123.7C277.766 121.066 277.117 118.637 275.817 116.413C274.518 114.189 272.757 112.427 270.532 111.128C268.308 109.829 265.879 109.179 263.245 109.179C260.612 109.179 258.183 109.829 255.958 111.128C253.734 112.427 251.972 114.189 250.673 116.413C249.374 118.637 248.724 121.066 248.724 123.7C248.724 126.334 249.374 128.763 250.673 130.987C251.972 133.212 253.734 134.973 255.958 136.272C258.183 137.571 260.612 138.221 263.245 138.221C265.879 138.221 268.308 137.571 270.532 136.272C272.757 134.973 274.518 133.212 275.817 130.987C277.117 128.763 277.766 126.334 277.766 123.7ZM278.782 110.295L281.435 108.296C281.876 107.964 282.503 108.052 282.836 108.493L284.641 110.889C284.973 111.33 284.885 111.957 284.444 112.289L281.568 114.457C283.019 117.309 283.745 120.39 283.745 123.7C283.745 127.419 282.829 130.849 280.996 133.99C279.163 137.131 276.676 139.618 273.535 141.451C270.394 143.284 266.964 144.2 263.245 144.2C259.526 144.2 256.096 143.284 252.955 141.451C249.814 139.618 247.327 137.131 245.495 133.99C243.662 130.849 242.745 127.419 242.745 123.7C242.745 119.981 243.662 116.551 245.495 113.41C247.327 110.269 249.814 107.782 252.955 105.949C255.38 104.535 257.976 103.666 260.745 103.343V101.2H258.745C258.193 101.2 257.745 100.752 257.745 100.2V98.2C257.745 97.6477 258.193 97.2 258.745 97.2H268.745C269.298 97.2 269.745 97.6477 269.745 98.2V100.2C269.745 100.752 269.298 101.2 268.745 101.2H266.745V103.485C269.142 103.885 271.405 104.706 273.535 105.949C275.555 107.128 277.303 108.576 278.782 110.295Z" fill="black"/>
<path fill-rule="evenodd" clip-rule="evenodd" d="M266.662 112.304V124.263C266.662 124.512 266.582 124.716 266.422 124.876C266.262 125.037 266.057 125.117 265.808 125.117H257.266C257.017 125.117 256.812 125.037 256.652 124.876C256.492 124.716 256.412 124.512 256.412 124.263V122.554C256.412 122.305 256.492 122.1 256.652 121.94C256.812 121.78 257.017 121.7 257.266 121.7H263.245V112.304C263.245 112.055 263.325 111.85 263.485 111.69C263.646 111.53 263.85 111.45 264.099 111.45H265.808C266.057 111.45 266.262 111.53 266.422 111.69C266.582 111.85 266.662 112.055 266.662 112.304ZM277.766 121.7C277.766 119.066 277.117 116.637 275.817 114.413C274.518 112.189 272.757 110.427 270.532 109.128C268.308 107.829 265.879 107.179 263.245 107.179C260.612 107.179 258.183 107.829 255.958 109.128C253.734 110.427 251.972 112.189 250.673 114.413C249.374 116.637 248.724 119.066 248.724 121.7C248.724 124.334 249.374 126.763 250.673 128.987C251.972 131.212 253.734 132.973 255.958 134.272C258.183 135.571 260.612 136.221 263.245 136.221C265.879 136.221 268.308 135.571 270.532 134.272C272.757 132.973 274.518 131.212 275.817 128.987C277.117 126.763 277.766 124.334 277.766 121.7ZM278.782 108.295L281.435 106.296C281.876 105.964 282.503 106.052 282.836 106.493L284.641 108.889C284.973 109.33 284.885 109.957 284.444 110.289L281.568 112.457C283.019 115.309 283.745 118.39 283.745 121.7C283.745 125.419 282.829 128.849 280.996 131.99C279.163 135.131 276.676 137.618 273.535 139.451C270.394 141.284 266.964 142.2 263.245 142.2C259.526 142.2 256.096 141.284 252.955 139.451C249.814 137.618 247.327 135.131 245.495 131.99C243.662 128.849 242.745 125.419 242.745 121.7C242.745 117.981 243.662 114.551 245.495 111.41C247.327 108.269 249.814 105.782 252.955 103.949C255.38 102.535 257.976 101.666 260.745 101.343V99.2H258.745C258.193 99.2 257.745 98.7523 257.745 98.2V96.2C257.745 95.6477 258.193 95.2 258.745 95.2H268.745C269.298 95.2 269.745 95.6477 269.745 96.2V98.2C269.745 98.7523 269.298 99.2 268.745 99.2H266.745V101.485C269.142 101.885 271.405 102.706 273.535 103.949C275.555 105.128 277.303 106.576 278.782 108.295Z" fill="white"/>
</g>
<path d="M112.791 169.026H109.752V167.799H112.791C113.38 167.799 113.856 167.706 114.221 167.518C114.585 167.331 114.851 167.07 115.018 166.737C115.19 166.404 115.276 166.023 115.276 165.596C115.276 165.206 115.19 164.839 115.018 164.495C114.851 164.151 114.585 163.875 114.221 163.667C113.856 163.453 113.38 163.346 112.791 163.346H110.104V173.487H108.596V162.112H112.791C113.651 162.112 114.377 162.26 114.971 162.557C115.565 162.854 116.015 163.266 116.322 163.792C116.63 164.313 116.783 164.909 116.783 165.581C116.783 166.31 116.63 166.932 116.322 167.448C116.015 167.964 115.565 168.357 114.971 168.628C114.377 168.893 113.651 169.026 112.791 169.026ZM119.916 166.362V173.487H118.471V165.034H119.877L119.916 166.362ZM122.557 164.987L122.549 166.331C122.429 166.305 122.315 166.289 122.205 166.284C122.101 166.273 121.981 166.268 121.846 166.268C121.513 166.268 121.218 166.32 120.963 166.424C120.708 166.529 120.492 166.674 120.315 166.862C120.138 167.049 119.997 167.273 119.893 167.534C119.794 167.789 119.729 168.07 119.697 168.378L119.291 168.612C119.291 168.102 119.341 167.622 119.44 167.174C119.544 166.727 119.703 166.331 119.916 165.987C120.13 165.638 120.401 165.367 120.729 165.174C121.062 164.977 121.458 164.878 121.916 164.878C122.02 164.878 122.14 164.891 122.276 164.917C122.411 164.938 122.505 164.961 122.557 164.987ZM123.354 169.354V169.174C123.354 168.565 123.442 168 123.619 167.479C123.796 166.953 124.052 166.497 124.385 166.112C124.718 165.721 125.122 165.419 125.596 165.206C126.07 164.987 126.601 164.878 127.19 164.878C127.783 164.878 128.317 164.987 128.791 165.206C129.27 165.419 129.677 165.721 130.01 166.112C130.348 166.497 130.606 166.953 130.783 167.479C130.96 168 131.049 168.565 131.049 169.174V169.354C131.049 169.964 130.96 170.529 130.783 171.049C130.606 171.57 130.348 172.026 130.01 172.417C129.677 172.802 129.273 173.104 128.799 173.323C128.33 173.536 127.799 173.643 127.205 173.643C126.611 173.643 126.078 173.536 125.604 173.323C125.13 173.104 124.723 172.802 124.385 172.417C124.052 172.026 123.796 171.57 123.619 171.049C123.442 170.529 123.354 169.964 123.354 169.354ZM124.799 169.174V169.354C124.799 169.776 124.848 170.174 124.947 170.549C125.046 170.919 125.195 171.247 125.393 171.534C125.596 171.82 125.848 172.047 126.151 172.214C126.453 172.375 126.804 172.456 127.205 172.456C127.601 172.456 127.947 172.375 128.244 172.214C128.546 172.047 128.796 171.82 128.994 171.534C129.192 171.247 129.341 170.919 129.44 170.549C129.544 170.174 129.596 169.776 129.596 169.354V169.174C129.596 168.758 129.544 168.365 129.44 167.995C129.341 167.62 129.19 167.289 128.986 167.003C128.789 166.711 128.539 166.482 128.236 166.315C127.94 166.148 127.591 166.065 127.19 166.065C126.794 166.065 126.445 166.148 126.143 166.315C125.846 166.482 125.596 166.711 125.393 167.003C125.195 167.289 125.046 167.62 124.947 167.995C124.848 168.365 124.799 168.758 124.799 169.174ZM132.901 165.034H134.354V174.495C134.354 175.01 134.27 175.448 134.104 175.807C133.942 176.167 133.697 176.438 133.369 176.62C133.046 176.807 132.638 176.901 132.143 176.901C132.013 176.901 131.861 176.888 131.69 176.862C131.513 176.836 131.364 176.805 131.244 176.768L131.252 175.604C131.351 175.625 131.463 175.641 131.588 175.651C131.713 175.667 131.822 175.674 131.916 175.674C132.13 175.674 132.309 175.635 132.455 175.557C132.601 175.479 132.71 175.354 132.783 175.182C132.861 175.01 132.901 174.781 132.901 174.495V165.034ZM132.752 162.792C132.752 162.557 132.825 162.359 132.971 162.198C133.117 162.036 133.328 161.956 133.604 161.956C133.885 161.956 134.098 162.036 134.244 162.198C134.39 162.359 134.463 162.557 134.463 162.792C134.463 163.016 134.39 163.208 134.244 163.37C134.098 163.526 133.885 163.604 133.604 163.604C133.328 163.604 133.117 163.526 132.971 163.37C132.825 163.208 132.752 163.016 132.752 162.792ZM140.197 173.643C139.609 173.643 139.075 173.544 138.596 173.346C138.122 173.143 137.713 172.859 137.369 172.495C137.031 172.13 136.77 171.698 136.588 171.198C136.406 170.698 136.315 170.151 136.315 169.557V169.229C136.315 168.542 136.416 167.93 136.619 167.393C136.822 166.852 137.098 166.393 137.447 166.018C137.796 165.643 138.192 165.359 138.635 165.167C139.078 164.974 139.536 164.878 140.01 164.878C140.614 164.878 141.135 164.982 141.572 165.19C142.015 165.398 142.377 165.69 142.658 166.065C142.94 166.435 143.148 166.872 143.283 167.378C143.419 167.878 143.486 168.424 143.486 169.018V169.667H137.174V168.487H142.041V168.378C142.02 168.003 141.942 167.638 141.807 167.284C141.677 166.93 141.468 166.638 141.182 166.409C140.895 166.18 140.505 166.065 140.01 166.065C139.682 166.065 139.38 166.135 139.104 166.276C138.828 166.411 138.591 166.615 138.393 166.885C138.195 167.156 138.041 167.487 137.932 167.878C137.822 168.268 137.768 168.719 137.768 169.229V169.557C137.768 169.958 137.822 170.336 137.932 170.69C138.046 171.039 138.21 171.346 138.424 171.612C138.643 171.878 138.906 172.086 139.213 172.237C139.526 172.388 139.88 172.464 140.276 172.464C140.786 172.464 141.218 172.359 141.572 172.151C141.927 171.943 142.236 171.664 142.502 171.315L143.377 172.01C143.195 172.286 142.963 172.549 142.682 172.799C142.401 173.049 142.054 173.253 141.643 173.409C141.236 173.565 140.755 173.643 140.197 173.643ZM146.627 161.487V173.487H145.174V161.487H146.627ZM151.791 165.034L148.104 168.979L146.041 171.12L145.924 169.581L147.401 167.815L150.026 165.034H151.791ZM150.471 173.487L147.455 169.456L148.205 168.167L152.174 173.487H150.471ZM156.822 165.034V166.143H152.252V165.034H156.822ZM153.799 162.979H155.244V171.393C155.244 171.68 155.289 171.896 155.377 172.042C155.466 172.188 155.58 172.284 155.721 172.331C155.861 172.378 156.013 172.401 156.174 172.401C156.294 172.401 156.419 172.391 156.549 172.37C156.684 172.344 156.786 172.323 156.854 172.307L156.861 173.487C156.747 173.523 156.596 173.557 156.408 173.589C156.226 173.625 156.005 173.643 155.744 173.643C155.39 173.643 155.065 173.573 154.768 173.432C154.471 173.292 154.234 173.057 154.057 172.729C153.885 172.396 153.799 171.948 153.799 171.385V162.979Z" fill="#333333"/>
<path d="M222.383 172.267V173.494H214.68V172.267H222.383ZM222.133 163.213L215.039 173.494H214.109V172.369L221.195 162.119H222.133V163.213ZM221.492 162.119V163.353H214.211V162.119H221.492ZM227.461 173.65C226.872 173.65 226.338 173.551 225.859 173.353C225.385 173.15 224.976 172.866 224.633 172.502C224.294 172.137 224.034 171.705 223.851 171.205C223.669 170.705 223.578 170.158 223.578 169.564V169.236C223.578 168.549 223.68 167.937 223.883 167.4C224.086 166.859 224.362 166.4 224.711 166.025C225.06 165.65 225.456 165.366 225.898 165.174C226.341 164.981 226.799 164.885 227.273 164.885C227.877 164.885 228.398 164.989 228.836 165.197C229.278 165.405 229.64 165.697 229.922 166.072C230.203 166.442 230.411 166.879 230.547 167.385C230.682 167.885 230.75 168.432 230.75 169.025V169.674H224.437V168.494H229.305V168.385C229.284 168.01 229.206 167.645 229.07 167.291C228.94 166.937 228.732 166.645 228.445 166.416C228.159 166.187 227.768 166.072 227.273 166.072C226.945 166.072 226.643 166.142 226.367 166.283C226.091 166.418 225.854 166.622 225.656 166.892C225.458 167.163 225.305 167.494 225.195 167.885C225.086 168.275 225.031 168.726 225.031 169.236V169.564C225.031 169.965 225.086 170.343 225.195 170.697C225.31 171.046 225.474 171.353 225.687 171.619C225.906 171.885 226.169 172.093 226.476 172.244C226.789 172.395 227.143 172.471 227.539 172.471C228.049 172.471 228.482 172.366 228.836 172.158C229.19 171.95 229.5 171.671 229.765 171.322L230.64 172.017C230.458 172.293 230.226 172.557 229.945 172.807C229.664 173.057 229.318 173.26 228.906 173.416C228.5 173.572 228.018 173.65 227.461 173.65ZM234.008 165.041V173.494H232.555V165.041H234.008ZM232.445 162.799C232.445 162.564 232.515 162.366 232.656 162.205C232.802 162.043 233.015 161.963 233.297 161.963C233.573 161.963 233.784 162.043 233.93 162.205C234.081 162.366 234.156 162.564 234.156 162.799C234.156 163.023 234.081 163.215 233.93 163.377C233.784 163.533 233.573 163.611 233.297 163.611C233.015 163.611 232.802 163.533 232.656 163.377C232.515 163.215 232.445 163.023 232.445 162.799ZM239.867 165.041V166.15H235.297V165.041H239.867ZM236.844 162.986H238.289V171.4C238.289 171.687 238.333 171.903 238.422 172.049C238.51 172.195 238.625 172.291 238.765 172.338C238.906 172.385 239.057 172.408 239.219 172.408C239.338 172.408 239.463 172.398 239.594 172.377C239.729 172.351 239.831 172.33 239.898 172.314L239.906 173.494C239.792 173.53 239.64 173.564 239.453 173.596C239.271 173.632 239.049 173.65 238.789 173.65C238.435 173.65 238.109 173.58 237.812 173.439C237.515 173.299 237.278 173.064 237.101 172.736C236.93 172.403 236.844 171.955 236.844 171.392V162.986ZM245.07 173.65C244.482 173.65 243.948 173.551 243.469 173.353C242.995 173.15 242.586 172.866 242.242 172.502C241.903 172.137 241.643 171.705 241.461 171.205C241.278 170.705 241.187 170.158 241.187 169.564V169.236C241.187 168.549 241.289 167.937 241.492 167.4C241.695 166.859 241.971 166.4 242.32 166.025C242.669 165.65 243.065 165.366 243.508 165.174C243.95 164.981 244.409 164.885 244.883 164.885C245.487 164.885 246.008 164.989 246.445 165.197C246.888 165.405 247.25 165.697 247.531 166.072C247.812 166.442 248.021 166.879 248.156 167.385C248.292 167.885 248.359 168.432 248.359 169.025V169.674H242.047V168.494H246.914V168.385C246.893 168.01 246.815 167.645 246.68 167.291C246.549 166.937 246.341 166.645 246.055 166.416C245.768 166.187 245.377 166.072 244.883 166.072C244.555 166.072 244.252 166.142 243.976 166.283C243.7 166.418 243.463 166.622 243.265 166.892C243.068 167.163 242.914 167.494 242.805 167.885C242.695 168.275 242.64 168.726 242.64 169.236V169.564C242.64 169.965 242.695 170.343 242.805 170.697C242.919 171.046 243.083 171.353 243.297 171.619C243.515 171.885 243.778 172.093 244.086 172.244C244.398 172.395 244.752 172.471 245.148 172.471C245.659 172.471 246.091 172.366 246.445 172.158C246.799 171.95 247.109 171.671 247.375 171.322L248.25 172.017C248.068 172.293 247.836 172.557 247.555 172.807C247.273 173.057 246.927 173.26 246.515 173.416C246.109 173.572 245.627 173.65 245.07 173.65ZM251.492 166.369V173.494H250.047V165.041H251.453L251.492 166.369ZM254.133 164.994L254.125 166.338C254.005 166.312 253.89 166.296 253.781 166.291C253.677 166.28 253.557 166.275 253.422 166.275C253.088 166.275 252.794 166.327 252.539 166.432C252.284 166.536 252.068 166.682 251.89 166.869C251.713 167.057 251.573 167.28 251.469 167.541C251.37 167.796 251.305 168.077 251.273 168.385L250.867 168.619C250.867 168.109 250.917 167.629 251.015 167.182C251.12 166.734 251.278 166.338 251.492 165.994C251.706 165.645 251.976 165.374 252.305 165.182C252.638 164.984 253.034 164.885 253.492 164.885C253.596 164.885 253.716 164.898 253.851 164.924C253.987 164.945 254.081 164.968 254.133 164.994ZM257.75 173.494H256.305V164.15C256.305 163.541 256.414 163.028 256.633 162.611C256.857 162.189 257.177 161.872 257.594 161.658C258.01 161.439 258.505 161.33 259.078 161.33C259.245 161.33 259.411 161.34 259.578 161.361C259.75 161.382 259.917 161.413 260.078 161.455L260 162.635C259.89 162.609 259.765 162.59 259.625 162.58C259.489 162.57 259.354 162.564 259.219 162.564C258.911 162.564 258.646 162.627 258.422 162.752C258.203 162.872 258.036 163.049 257.922 163.283C257.807 163.517 257.75 163.807 257.75 164.15V173.494ZM259.547 165.041V166.15H254.969V165.041H259.547ZM266.14 172.049V167.697C266.14 167.364 266.073 167.075 265.937 166.83C265.807 166.58 265.609 166.387 265.344 166.252C265.078 166.116 264.75 166.049 264.359 166.049C263.995 166.049 263.674 166.111 263.398 166.236C263.127 166.361 262.914 166.525 262.758 166.728C262.607 166.932 262.531 167.15 262.531 167.385H261.086C261.086 167.083 261.164 166.783 261.32 166.486C261.476 166.189 261.7 165.921 261.992 165.682C262.289 165.437 262.643 165.244 263.055 165.103C263.471 164.958 263.935 164.885 264.445 164.885C265.06 164.885 265.601 164.989 266.07 165.197C266.544 165.405 266.914 165.721 267.18 166.142C267.45 166.559 267.586 167.083 267.586 167.713V171.65C267.586 171.932 267.609 172.231 267.656 172.549C267.708 172.866 267.784 173.14 267.883 173.369V173.494H266.375C266.302 173.327 266.245 173.106 266.203 172.83C266.161 172.549 266.14 172.288 266.14 172.049ZM266.39 168.369L266.406 169.385H264.945C264.534 169.385 264.167 169.418 263.844 169.486C263.521 169.549 263.25 169.645 263.031 169.775C262.812 169.905 262.646 170.07 262.531 170.267C262.417 170.46 262.359 170.687 262.359 170.947C262.359 171.213 262.419 171.455 262.539 171.674C262.659 171.892 262.838 172.067 263.078 172.197C263.323 172.322 263.622 172.385 263.976 172.385C264.419 172.385 264.81 172.291 265.148 172.103C265.487 171.916 265.755 171.687 265.953 171.416C266.156 171.145 266.265 170.882 266.281 170.627L266.898 171.322C266.862 171.541 266.763 171.783 266.601 172.049C266.44 172.314 266.224 172.57 265.953 172.814C265.687 173.054 265.37 173.254 265 173.416C264.635 173.572 264.224 173.65 263.765 173.65C263.193 173.65 262.69 173.538 262.258 173.314C261.831 173.09 261.497 172.791 261.258 172.416C261.023 172.036 260.906 171.611 260.906 171.142C260.906 170.689 260.995 170.291 261.172 169.947C261.349 169.598 261.604 169.309 261.937 169.08C262.271 168.846 262.672 168.668 263.14 168.549C263.609 168.429 264.133 168.369 264.711 168.369H266.39ZM274.781 171.252C274.781 171.043 274.734 170.851 274.64 170.674C274.552 170.491 274.367 170.327 274.086 170.182C273.81 170.03 273.393 169.9 272.836 169.791C272.367 169.692 271.943 169.575 271.562 169.439C271.187 169.304 270.867 169.14 270.601 168.947C270.341 168.754 270.14 168.528 270 168.267C269.859 168.007 269.789 167.702 269.789 167.353C269.789 167.02 269.862 166.705 270.008 166.408C270.159 166.111 270.37 165.848 270.64 165.619C270.917 165.39 271.247 165.21 271.633 165.08C272.018 164.95 272.448 164.885 272.922 164.885C273.599 164.885 274.177 165.004 274.656 165.244C275.135 165.484 275.502 165.804 275.758 166.205C276.013 166.601 276.14 167.041 276.14 167.525H274.695C274.695 167.291 274.625 167.064 274.484 166.846C274.349 166.622 274.148 166.437 273.883 166.291C273.622 166.145 273.302 166.072 272.922 166.072C272.521 166.072 272.195 166.135 271.945 166.26C271.7 166.379 271.521 166.533 271.406 166.721C271.297 166.908 271.242 167.106 271.242 167.314C271.242 167.471 271.268 167.611 271.32 167.736C271.377 167.856 271.476 167.968 271.617 168.072C271.758 168.171 271.956 168.265 272.211 168.353C272.466 168.442 272.792 168.53 273.187 168.619C273.88 168.775 274.45 168.963 274.898 169.182C275.346 169.4 275.68 169.668 275.898 169.986C276.117 170.304 276.226 170.689 276.226 171.142C276.226 171.512 276.148 171.851 275.992 172.158C275.841 172.465 275.62 172.731 275.328 172.955C275.042 173.174 274.698 173.346 274.297 173.471C273.901 173.59 273.456 173.65 272.961 173.65C272.216 173.65 271.586 173.517 271.07 173.252C270.555 172.986 270.164 172.642 269.898 172.221C269.633 171.799 269.5 171.353 269.5 170.885H270.953C270.974 171.28 271.088 171.596 271.297 171.83C271.505 172.059 271.76 172.223 272.062 172.322C272.364 172.416 272.664 172.463 272.961 172.463C273.357 172.463 273.687 172.411 273.953 172.307C274.224 172.202 274.43 172.059 274.57 171.877C274.711 171.695 274.781 171.486 274.781 171.252ZM283.047 171.252C283.047 171.043 283 170.851 282.906 170.674C282.818 170.491 282.633 170.327 282.351 170.182C282.075 170.03 281.659 169.9 281.101 169.791C280.633 169.692 280.208 169.575 279.828 169.439C279.453 169.304 279.133 169.14 278.867 168.947C278.607 168.754 278.406 168.528 278.265 168.267C278.125 168.007 278.055 167.702 278.055 167.353C278.055 167.02 278.127 166.705 278.273 166.408C278.424 166.111 278.635 165.848 278.906 165.619C279.182 165.39 279.513 165.21 279.898 165.08C280.284 164.95 280.713 164.885 281.187 164.885C281.864 164.885 282.443 165.004 282.922 165.244C283.401 165.484 283.768 165.804 284.023 166.205C284.278 166.601 284.406 167.041 284.406 167.525H282.961C282.961 167.291 282.89 167.064 282.75 166.846C282.614 166.622 282.414 166.437 282.148 166.291C281.888 166.145 281.568 166.072 281.187 166.072C280.786 166.072 280.461 166.135 280.211 166.26C279.966 166.379 279.786 166.533 279.672 166.721C279.562 166.908 279.508 167.106 279.508 167.314C279.508 167.471 279.534 167.611 279.586 167.736C279.643 167.856 279.742 167.968 279.883 168.072C280.023 168.171 280.221 168.265 280.476 168.353C280.732 168.442 281.057 168.53 281.453 168.619C282.146 168.775 282.716 168.963 283.164 169.182C283.612 169.4 283.945 169.668 284.164 169.986C284.383 170.304 284.492 170.689 284.492 171.142C284.492 171.512 284.414 171.851 284.258 172.158C284.107 172.465 283.885 172.731 283.594 172.955C283.307 173.174 282.963 173.346 282.562 173.471C282.167 173.59 281.721 173.65 281.226 173.65C280.482 173.65 279.851 173.517 279.336 173.252C278.82 172.986 278.43 172.642 278.164 172.221C277.898 171.799 277.765 171.353 277.765 170.885H279.219C279.239 171.28 279.354 171.596 279.562 171.83C279.771 172.059 280.026 172.223 280.328 172.322C280.63 172.416 280.93 172.463 281.226 172.463C281.622 172.463 281.953 172.411 282.219 172.307C282.489 172.202 282.695 172.059 282.836 171.877C282.976 171.695 283.047 171.486 283.047 171.252ZM291.562 171.541V165.041H293.015V173.494H291.633L291.562 171.541ZM291.836 169.76L292.437 169.744C292.437 170.307 292.377 170.827 292.258 171.307C292.143 171.78 291.956 172.192 291.695 172.541C291.435 172.89 291.094 173.163 290.672 173.361C290.25 173.554 289.737 173.65 289.133 173.65C288.721 173.65 288.344 173.59 288 173.471C287.661 173.351 287.37 173.166 287.125 172.916C286.88 172.666 286.69 172.34 286.555 171.939C286.424 171.538 286.359 171.057 286.359 170.494V165.041H287.805V170.51C287.805 170.89 287.846 171.205 287.93 171.455C288.018 171.7 288.135 171.895 288.281 172.041C288.432 172.182 288.599 172.28 288.781 172.338C288.969 172.395 289.161 172.424 289.359 172.424C289.974 172.424 290.461 172.307 290.82 172.072C291.18 171.833 291.437 171.512 291.594 171.111C291.755 170.705 291.836 170.254 291.836 169.76ZM296.664 166.846V173.494H295.219V165.041H296.586L296.664 166.846ZM296.32 168.947L295.719 168.924C295.724 168.346 295.81 167.812 295.976 167.322C296.143 166.827 296.377 166.398 296.68 166.033C296.982 165.668 297.341 165.387 297.758 165.189C298.18 164.986 298.646 164.885 299.156 164.885C299.573 164.885 299.948 164.942 300.281 165.057C300.614 165.166 300.898 165.343 301.133 165.588C301.372 165.833 301.555 166.15 301.68 166.541C301.805 166.926 301.867 167.398 301.867 167.955V173.494H300.414V167.939C300.414 167.497 300.349 167.142 300.219 166.877C300.088 166.606 299.898 166.411 299.648 166.291C299.398 166.166 299.091 166.103 298.726 166.103C298.367 166.103 298.039 166.179 297.742 166.33C297.45 166.481 297.198 166.689 296.984 166.955C296.776 167.221 296.612 167.525 296.492 167.869C296.377 168.208 296.32 168.567 296.32 168.947ZM309.539 165.041H310.851V173.314C310.851 174.059 310.7 174.695 310.398 175.221C310.096 175.747 309.674 176.145 309.133 176.416C308.596 176.692 307.976 176.83 307.273 176.83C306.982 176.83 306.638 176.783 306.242 176.689C305.851 176.601 305.466 176.447 305.086 176.228C304.711 176.015 304.396 175.726 304.14 175.361L304.898 174.502C305.252 174.929 305.622 175.226 306.008 175.392C306.398 175.559 306.784 175.642 307.164 175.642C307.622 175.642 308.018 175.557 308.351 175.385C308.685 175.213 308.943 174.958 309.125 174.619C309.312 174.286 309.406 173.874 309.406 173.385V166.9L309.539 165.041ZM303.719 169.361V169.197C303.719 168.551 303.794 167.965 303.945 167.439C304.101 166.908 304.323 166.452 304.609 166.072C304.901 165.692 305.252 165.4 305.664 165.197C306.075 164.989 306.539 164.885 307.055 164.885C307.586 164.885 308.049 164.978 308.445 165.166C308.846 165.348 309.185 165.616 309.461 165.971C309.742 166.32 309.963 166.741 310.125 167.236C310.286 167.731 310.398 168.291 310.461 168.916V169.635C310.403 170.254 310.292 170.812 310.125 171.307C309.963 171.801 309.742 172.223 309.461 172.572C309.185 172.921 308.846 173.189 308.445 173.377C308.044 173.559 307.575 173.65 307.039 173.65C306.534 173.65 306.075 173.543 305.664 173.33C305.258 173.116 304.909 172.817 304.617 172.432C304.325 172.046 304.101 171.593 303.945 171.072C303.794 170.546 303.719 169.976 303.719 169.361ZM305.164 169.197V169.361C305.164 169.783 305.206 170.179 305.289 170.549C305.377 170.918 305.51 171.244 305.687 171.525C305.87 171.807 306.101 172.028 306.383 172.189C306.664 172.346 307 172.424 307.39 172.424C307.87 172.424 308.265 172.322 308.578 172.119C308.89 171.916 309.138 171.648 309.32 171.314C309.508 170.981 309.653 170.619 309.758 170.228V168.346C309.7 168.059 309.612 167.783 309.492 167.517C309.377 167.247 309.226 167.007 309.039 166.799C308.857 166.585 308.63 166.416 308.359 166.291C308.088 166.166 307.771 166.103 307.406 166.103C307.01 166.103 306.669 166.187 306.383 166.353C306.101 166.515 305.87 166.739 305.687 167.025C305.51 167.307 305.377 167.635 305.289 168.01C305.206 168.379 305.164 168.775 305.164 169.197Z" fill="#333333"/>
<path d="M89.5312 285.649L85.7656 296.016H84.2266L88.5625 284.641H89.5547L89.5312 285.649ZM92.6875 296.016L88.9141 285.649L88.8906 284.641H89.8828L94.2344 296.016H92.6875ZM92.4922 291.805V293.039H86.1016V291.805H92.4922ZM96.9844 289.367V296.016H95.5391V287.563H96.9062L96.9844 289.367ZM96.6406 291.469L96.0391 291.446C96.0443 290.867 96.1302 290.334 96.2969 289.844C96.4635 289.349 96.6979 288.92 97 288.555C97.3021 288.19 97.6615 287.909 98.0781 287.711C98.5 287.508 98.9661 287.407 99.4766 287.407C99.8932 287.407 100.268 287.464 100.602 287.578C100.935 287.688 101.219 287.865 101.453 288.11C101.693 288.354 101.875 288.672 102 289.063C102.125 289.448 102.188 289.92 102.188 290.477V296.016H100.734V290.461C100.734 290.019 100.669 289.664 100.539 289.399C100.409 289.128 100.219 288.933 99.9688 288.813C99.7188 288.688 99.4115 288.625 99.0469 288.625C98.6875 288.625 98.3594 288.701 98.0625 288.852C97.7708 289.003 97.5182 289.211 97.3047 289.477C97.0964 289.742 96.9323 290.047 96.8125 290.391C96.6979 290.729 96.6406 291.089 96.6406 291.469ZM106.523 294.516L108.695 287.563H109.648L109.461 288.946L107.25 296.016H106.32L106.523 294.516ZM105.062 287.563L106.914 294.594L107.047 296.016H106.07L103.617 287.563H105.062ZM111.727 294.539L113.492 287.563H114.93L112.477 296.016H111.508L111.727 294.539ZM109.859 287.563L111.984 294.399L112.227 296.016H111.305L109.031 288.93L108.844 287.563H109.859ZM119.922 296.172C119.333 296.172 118.799 296.073 118.32 295.875C117.846 295.672 117.438 295.388 117.094 295.024C116.755 294.659 116.495 294.227 116.312 293.727C116.13 293.227 116.039 292.68 116.039 292.086V291.758C116.039 291.071 116.141 290.459 116.344 289.922C116.547 289.381 116.823 288.922 117.172 288.547C117.521 288.172 117.917 287.888 118.359 287.696C118.802 287.503 119.26 287.407 119.734 287.407C120.339 287.407 120.859 287.511 121.297 287.719C121.74 287.927 122.102 288.219 122.383 288.594C122.664 288.964 122.872 289.401 123.008 289.907C123.143 290.407 123.211 290.953 123.211 291.547V292.196H116.898V291.016H121.766V290.907C121.745 290.532 121.667 290.167 121.531 289.813C121.401 289.459 121.193 289.167 120.906 288.938C120.62 288.709 120.229 288.594 119.734 288.594C119.406 288.594 119.104 288.664 118.828 288.805C118.552 288.94 118.315 289.144 118.117 289.414C117.919 289.685 117.766 290.016 117.656 290.407C117.547 290.797 117.492 291.248 117.492 291.758V292.086C117.492 292.487 117.547 292.865 117.656 293.219C117.771 293.568 117.935 293.875 118.148 294.141C118.367 294.407 118.63 294.615 118.938 294.766C119.25 294.917 119.604 294.992 120 294.992C120.51 294.992 120.943 294.888 121.297 294.68C121.651 294.472 121.961 294.193 122.227 293.844L123.102 294.539C122.919 294.815 122.688 295.078 122.406 295.328C122.125 295.578 121.779 295.782 121.367 295.938C120.961 296.094 120.479 296.172 119.922 296.172ZM129.82 293.774C129.82 293.565 129.773 293.373 129.68 293.196C129.591 293.013 129.406 292.849 129.125 292.703C128.849 292.552 128.432 292.422 127.875 292.313C127.406 292.214 126.982 292.097 126.602 291.961C126.227 291.826 125.906 291.662 125.641 291.469C125.38 291.276 125.18 291.05 125.039 290.789C124.898 290.529 124.828 290.224 124.828 289.875C124.828 289.542 124.901 289.227 125.047 288.93C125.198 288.633 125.409 288.37 125.68 288.141C125.956 287.912 126.286 287.732 126.672 287.602C127.057 287.472 127.487 287.407 127.961 287.407C128.638 287.407 129.216 287.526 129.695 287.766C130.174 288.006 130.542 288.326 130.797 288.727C131.052 289.123 131.18 289.563 131.18 290.047H129.734C129.734 289.813 129.664 289.586 129.523 289.367C129.388 289.144 129.188 288.959 128.922 288.813C128.661 288.667 128.341 288.594 127.961 288.594C127.56 288.594 127.234 288.657 126.984 288.782C126.74 288.901 126.56 289.055 126.445 289.242C126.336 289.43 126.281 289.628 126.281 289.836C126.281 289.992 126.307 290.133 126.359 290.258C126.417 290.378 126.516 290.49 126.656 290.594C126.797 290.693 126.995 290.787 127.25 290.875C127.505 290.964 127.831 291.052 128.227 291.141C128.919 291.297 129.49 291.485 129.938 291.703C130.385 291.922 130.719 292.19 130.938 292.508C131.156 292.826 131.266 293.211 131.266 293.664C131.266 294.034 131.188 294.373 131.031 294.68C130.88 294.987 130.659 295.253 130.367 295.477C130.081 295.696 129.737 295.867 129.336 295.992C128.94 296.112 128.495 296.172 128 296.172C127.255 296.172 126.625 296.039 126.109 295.774C125.594 295.508 125.203 295.164 124.938 294.742C124.672 294.321 124.539 293.875 124.539 293.407H125.992C126.013 293.802 126.128 294.117 126.336 294.352C126.544 294.581 126.799 294.745 127.102 294.844C127.404 294.938 127.703 294.985 128 294.985C128.396 294.985 128.727 294.933 128.992 294.828C129.263 294.724 129.469 294.581 129.609 294.399C129.75 294.216 129.82 294.008 129.82 293.774ZM136.672 296.172C136.083 296.172 135.549 296.073 135.07 295.875C134.596 295.672 134.188 295.388 133.844 295.024C133.505 294.659 133.245 294.227 133.062 293.727C132.88 293.227 132.789 292.68 132.789 292.086V291.758C132.789 291.071 132.891 290.459 133.094 289.922C133.297 289.381 133.573 288.922 133.922 288.547C134.271 288.172 134.667 287.888 135.109 287.696C135.552 287.503 136.01 287.407 136.484 287.407C137.089 287.407 137.609 287.511 138.047 287.719C138.49 287.927 138.852 288.219 139.133 288.594C139.414 288.964 139.622 289.401 139.758 289.907C139.893 290.407 139.961 290.953 139.961 291.547V292.196H133.648V291.016H138.516V290.907C138.495 290.532 138.417 290.167 138.281 289.813C138.151 289.459 137.943 289.167 137.656 288.938C137.37 288.709 136.979 288.594 136.484 288.594C136.156 288.594 135.854 288.664 135.578 288.805C135.302 288.94 135.065 289.144 134.867 289.414C134.669 289.685 134.516 290.016 134.406 290.407C134.297 290.797 134.242 291.248 134.242 291.758V292.086C134.242 292.487 134.297 292.865 134.406 293.219C134.521 293.568 134.685 293.875 134.898 294.141C135.117 294.407 135.38 294.615 135.688 294.766C136 294.917 136.354 294.992 136.75 294.992C137.26 294.992 137.693 294.888 138.047 294.68C138.401 294.472 138.711 294.193 138.977 293.844L139.852 294.539C139.669 294.815 139.438 295.078 139.156 295.328C138.875 295.578 138.529 295.782 138.117 295.938C137.711 296.094 137.229 296.172 136.672 296.172ZM143.094 289.367V296.016H141.648V287.563H143.016L143.094 289.367ZM142.75 291.469L142.148 291.446C142.154 290.867 142.24 290.334 142.406 289.844C142.573 289.349 142.807 288.92 143.109 288.555C143.411 288.19 143.771 287.909 144.188 287.711C144.609 287.508 145.076 287.407 145.586 287.407C146.003 287.407 146.378 287.464 146.711 287.578C147.044 287.688 147.328 287.865 147.562 288.11C147.802 288.354 147.984 288.672 148.109 289.063C148.234 289.448 148.297 289.92 148.297 290.477V296.016H146.844V290.461C146.844 290.019 146.779 289.664 146.648 289.399C146.518 289.128 146.328 288.933 146.078 288.813C145.828 288.688 145.521 288.625 145.156 288.625C144.797 288.625 144.469 288.701 144.172 288.852C143.88 289.003 143.628 289.211 143.414 289.477C143.206 289.742 143.042 290.047 142.922 290.391C142.807 290.729 142.75 291.089 142.75 291.469ZM151.938 284.016V296.016H150.492V284.016H151.938ZM151.594 291.469L150.992 291.446C150.997 290.867 151.083 290.334 151.25 289.844C151.417 289.349 151.651 288.92 151.953 288.555C152.255 288.19 152.615 287.909 153.031 287.711C153.453 287.508 153.919 287.407 154.43 287.407C154.846 287.407 155.221 287.464 155.555 287.578C155.888 287.688 156.172 287.865 156.406 288.11C156.646 288.354 156.828 288.672 156.953 289.063C157.078 289.448 157.141 289.92 157.141 290.477V296.016H155.688V290.461C155.688 290.019 155.622 289.664 155.492 289.399C155.362 289.128 155.172 288.933 154.922 288.813C154.672 288.688 154.365 288.625 154 288.625C153.641 288.625 153.312 288.701 153.016 288.852C152.724 289.003 152.471 289.211 152.258 289.477C152.049 289.742 151.885 290.047 151.766 290.391C151.651 290.729 151.594 291.089 151.594 291.469ZM162.812 296.172C162.224 296.172 161.69 296.073 161.211 295.875C160.737 295.672 160.328 295.388 159.984 295.024C159.646 294.659 159.385 294.227 159.203 293.727C159.021 293.227 158.93 292.68 158.93 292.086V291.758C158.93 291.071 159.031 290.459 159.234 289.922C159.438 289.381 159.714 288.922 160.062 288.547C160.411 288.172 160.807 287.888 161.25 287.696C161.693 287.503 162.151 287.407 162.625 287.407C163.229 287.407 163.75 287.511 164.188 287.719C164.63 287.927 164.992 288.219 165.273 288.594C165.555 288.964 165.763 289.401 165.898 289.907C166.034 290.407 166.102 290.953 166.102 291.547V292.196H159.789V291.016H164.656V290.907C164.635 290.532 164.557 290.167 164.422 289.813C164.292 289.459 164.083 289.167 163.797 288.938C163.51 288.709 163.12 288.594 162.625 288.594C162.297 288.594 161.995 288.664 161.719 288.805C161.443 288.94 161.206 289.144 161.008 289.414C160.81 289.685 160.656 290.016 160.547 290.407C160.438 290.797 160.383 291.248 160.383 291.758V292.086C160.383 292.487 160.438 292.865 160.547 293.219C160.661 293.568 160.826 293.875 161.039 294.141C161.258 294.407 161.521 294.615 161.828 294.766C162.141 294.917 162.495 294.992 162.891 294.992C163.401 294.992 163.833 294.888 164.188 294.68C164.542 294.472 164.852 294.193 165.117 293.844L165.992 294.539C165.81 294.815 165.578 295.078 165.297 295.328C165.016 295.578 164.669 295.782 164.258 295.938C163.852 296.094 163.37 296.172 162.812 296.172ZM169.359 287.563V296.016H167.906V287.563H169.359ZM167.797 285.321C167.797 285.086 167.867 284.888 168.008 284.727C168.154 284.565 168.367 284.485 168.648 284.485C168.924 284.485 169.135 284.565 169.281 284.727C169.432 284.888 169.508 285.086 169.508 285.321C169.508 285.545 169.432 285.737 169.281 285.899C169.135 286.055 168.924 286.133 168.648 286.133C168.367 286.133 168.154 286.055 168.008 285.899C167.867 285.737 167.797 285.545 167.797 285.321ZM175.219 287.563V288.672H170.648V287.563H175.219ZM172.195 285.508H173.641V293.922C173.641 294.209 173.685 294.425 173.773 294.571C173.862 294.716 173.977 294.813 174.117 294.86C174.258 294.907 174.409 294.93 174.57 294.93C174.69 294.93 174.815 294.92 174.945 294.899C175.081 294.873 175.182 294.852 175.25 294.836L175.258 296.016C175.143 296.052 174.992 296.086 174.805 296.117C174.622 296.154 174.401 296.172 174.141 296.172C173.786 296.172 173.461 296.102 173.164 295.961C172.867 295.821 172.63 295.586 172.453 295.258C172.281 294.925 172.195 294.477 172.195 293.914V285.508Z" fill="#333333"/>
<path d="M228.599 285.66L224.833 296.027H223.294L227.63 284.652H228.622L228.599 285.66ZM231.755 296.027L227.982 285.66L227.958 284.652H228.95L233.302 296.027H231.755ZM231.56 291.816V293.05H225.169V291.816H231.56ZM234.599 284.027H236.052V294.386L235.927 296.027H234.599V284.027ZM241.763 291.73V291.894C241.763 292.509 241.69 293.079 241.544 293.605C241.398 294.126 241.185 294.579 240.903 294.965C240.622 295.35 240.278 295.649 239.872 295.863C239.466 296.077 239 296.183 238.474 296.183C237.937 296.183 237.466 296.092 237.06 295.91C236.659 295.722 236.32 295.454 236.044 295.105C235.768 294.756 235.547 294.334 235.38 293.84C235.219 293.345 235.107 292.787 235.044 292.168V291.449C235.107 290.824 235.219 290.264 235.38 289.769C235.547 289.274 235.768 288.853 236.044 288.504C236.32 288.149 236.659 287.881 237.06 287.699C237.461 287.511 237.927 287.418 238.458 287.418C238.989 287.418 239.461 287.522 239.872 287.73C240.284 287.933 240.627 288.225 240.903 288.605C241.185 288.985 241.398 289.441 241.544 289.972C241.69 290.498 241.763 291.084 241.763 291.73ZM240.31 291.894V291.73C240.31 291.308 240.271 290.912 240.193 290.543C240.114 290.168 239.989 289.84 239.818 289.558C239.646 289.272 239.419 289.048 239.138 288.886C238.857 288.72 238.51 288.636 238.099 288.636C237.734 288.636 237.416 288.699 237.146 288.824C236.88 288.949 236.653 289.118 236.466 289.332C236.278 289.54 236.125 289.78 236.005 290.05C235.89 290.316 235.805 290.592 235.747 290.879V292.761C235.831 293.126 235.966 293.478 236.153 293.816C236.346 294.149 236.601 294.423 236.919 294.636C237.242 294.85 237.64 294.957 238.114 294.957C238.505 294.957 238.838 294.879 239.114 294.722C239.396 294.561 239.622 294.34 239.794 294.058C239.971 293.777 240.101 293.452 240.185 293.082C240.268 292.712 240.31 292.316 240.31 291.894ZM245.732 294.527L247.903 287.574H248.857L248.669 288.957L246.458 296.027H245.528L245.732 294.527ZM244.271 287.574L246.122 294.605L246.255 296.027H245.278L242.825 287.574H244.271ZM250.935 294.55L252.7 287.574H254.138L251.685 296.027H250.716L250.935 294.55ZM249.068 287.574L251.193 294.41L251.435 296.027H250.513L248.239 288.941L248.052 287.574H249.068ZM259.13 296.183C258.541 296.183 258.008 296.084 257.528 295.886C257.055 295.683 256.646 295.399 256.302 295.035C255.963 294.67 255.703 294.238 255.521 293.738C255.338 293.238 255.247 292.691 255.247 292.097V291.769C255.247 291.082 255.349 290.47 255.552 289.933C255.755 289.392 256.031 288.933 256.38 288.558C256.729 288.183 257.125 287.899 257.568 287.707C258.01 287.514 258.469 287.418 258.943 287.418C259.547 287.418 260.068 287.522 260.505 287.73C260.948 287.938 261.31 288.23 261.591 288.605C261.872 288.975 262.081 289.412 262.216 289.918C262.351 290.418 262.419 290.965 262.419 291.558V292.207H256.107V291.027H260.974V290.918C260.953 290.543 260.875 290.178 260.739 289.824C260.609 289.47 260.401 289.178 260.114 288.949C259.828 288.72 259.437 288.605 258.943 288.605C258.614 288.605 258.312 288.675 258.036 288.816C257.76 288.952 257.523 289.155 257.325 289.425C257.127 289.696 256.974 290.027 256.864 290.418C256.755 290.808 256.7 291.259 256.7 291.769V292.097C256.7 292.498 256.755 292.876 256.864 293.23C256.979 293.579 257.143 293.886 257.357 294.152C257.575 294.418 257.838 294.626 258.146 294.777C258.458 294.928 258.812 295.004 259.208 295.004C259.719 295.004 260.151 294.899 260.505 294.691C260.859 294.483 261.169 294.204 261.435 293.855L262.31 294.55C262.127 294.827 261.896 295.09 261.614 295.34C261.333 295.59 260.987 295.793 260.575 295.949C260.169 296.105 259.687 296.183 259.13 296.183ZM269.028 293.785C269.028 293.577 268.982 293.384 268.888 293.207C268.799 293.024 268.614 292.86 268.333 292.715C268.057 292.563 267.64 292.433 267.083 292.324C266.614 292.225 266.19 292.108 265.81 291.972C265.435 291.837 265.114 291.673 264.849 291.48C264.588 291.287 264.388 291.061 264.247 290.8C264.107 290.54 264.036 290.235 264.036 289.886C264.036 289.553 264.109 289.238 264.255 288.941C264.406 288.644 264.617 288.381 264.888 288.152C265.164 287.923 265.495 287.743 265.88 287.613C266.265 287.483 266.695 287.418 267.169 287.418C267.846 287.418 268.424 287.537 268.903 287.777C269.383 288.017 269.75 288.337 270.005 288.738C270.26 289.134 270.388 289.574 270.388 290.058H268.943C268.943 289.824 268.872 289.597 268.732 289.379C268.596 289.155 268.396 288.97 268.13 288.824C267.87 288.678 267.549 288.605 267.169 288.605C266.768 288.605 266.443 288.668 266.193 288.793C265.948 288.912 265.768 289.066 265.653 289.254C265.544 289.441 265.489 289.639 265.489 289.847C265.489 290.004 265.515 290.144 265.568 290.269C265.625 290.389 265.724 290.501 265.864 290.605C266.005 290.704 266.203 290.798 266.458 290.886C266.713 290.975 267.039 291.063 267.435 291.152C268.127 291.308 268.698 291.496 269.146 291.715C269.594 291.933 269.927 292.202 270.146 292.519C270.364 292.837 270.474 293.222 270.474 293.675C270.474 294.045 270.396 294.384 270.239 294.691C270.088 294.998 269.867 295.264 269.575 295.488C269.289 295.707 268.945 295.879 268.544 296.004C268.148 296.123 267.703 296.183 267.208 296.183C266.463 296.183 265.833 296.05 265.318 295.785C264.802 295.519 264.411 295.175 264.146 294.754C263.88 294.332 263.747 293.886 263.747 293.418H265.2C265.221 293.813 265.336 294.129 265.544 294.363C265.752 294.592 266.008 294.756 266.31 294.855C266.612 294.949 266.911 294.996 267.208 294.996C267.604 294.996 267.935 294.944 268.2 294.84C268.471 294.735 268.677 294.592 268.818 294.41C268.958 294.228 269.028 294.019 269.028 293.785ZM275.88 296.183C275.291 296.183 274.758 296.084 274.278 295.886C273.805 295.683 273.396 295.399 273.052 295.035C272.713 294.67 272.453 294.238 272.271 293.738C272.088 293.238 271.997 292.691 271.997 292.097V291.769C271.997 291.082 272.099 290.47 272.302 289.933C272.505 289.392 272.781 288.933 273.13 288.558C273.479 288.183 273.875 287.899 274.318 287.707C274.76 287.514 275.219 287.418 275.693 287.418C276.297 287.418 276.818 287.522 277.255 287.73C277.698 287.938 278.06 288.23 278.341 288.605C278.622 288.975 278.831 289.412 278.966 289.918C279.101 290.418 279.169 290.965 279.169 291.558V292.207H272.857V291.027H277.724V290.918C277.703 290.543 277.625 290.178 277.489 289.824C277.359 289.47 277.151 289.178 276.864 288.949C276.578 288.72 276.187 288.605 275.693 288.605C275.364 288.605 275.062 288.675 274.786 288.816C274.51 288.952 274.273 289.155 274.075 289.425C273.877 289.696 273.724 290.027 273.614 290.418C273.505 290.808 273.45 291.259 273.45 291.769V292.097C273.45 292.498 273.505 292.876 273.614 293.23C273.729 293.579 273.893 293.886 274.107 294.152C274.325 294.418 274.588 294.626 274.896 294.777C275.208 294.928 275.562 295.004 275.958 295.004C276.469 295.004 276.901 294.899 277.255 294.691C277.609 294.483 277.919 294.204 278.185 293.855L279.06 294.55C278.877 294.827 278.646 295.09 278.364 295.34C278.083 295.59 277.737 295.793 277.325 295.949C276.919 296.105 276.437 296.183 275.88 296.183ZM282.302 289.379V296.027H280.857V287.574H282.224L282.302 289.379ZM281.958 291.48L281.357 291.457C281.362 290.879 281.448 290.345 281.614 289.855C281.781 289.36 282.015 288.931 282.318 288.566C282.62 288.202 282.979 287.92 283.396 287.722C283.818 287.519 284.284 287.418 284.794 287.418C285.211 287.418 285.586 287.475 285.919 287.59C286.252 287.699 286.536 287.876 286.771 288.121C287.01 288.366 287.193 288.683 287.318 289.074C287.443 289.459 287.505 289.931 287.505 290.488V296.027H286.052V290.472C286.052 290.03 285.987 289.675 285.857 289.41C285.726 289.139 285.536 288.944 285.286 288.824C285.036 288.699 284.729 288.636 284.364 288.636C284.005 288.636 283.677 288.712 283.38 288.863C283.088 289.014 282.836 289.222 282.622 289.488C282.414 289.754 282.25 290.058 282.13 290.402C282.015 290.741 281.958 291.1 281.958 291.48ZM291.146 284.027V296.027H289.7V284.027H291.146ZM290.802 291.48L290.2 291.457C290.206 290.879 290.291 290.345 290.458 289.855C290.625 289.36 290.859 288.931 291.161 288.566C291.463 288.202 291.823 287.92 292.239 287.722C292.661 287.519 293.127 287.418 293.638 287.418C294.055 287.418 294.43 287.475 294.763 287.59C295.096 287.699 295.38 287.876 295.614 288.121C295.854 288.366 296.036 288.683 296.161 289.074C296.286 289.459 296.349 289.931 296.349 290.488V296.027H294.896V290.472C294.896 290.03 294.831 289.675 294.7 289.41C294.57 289.139 294.38 288.944 294.13 288.824C293.88 288.699 293.573 288.636 293.208 288.636C292.849 288.636 292.521 288.712 292.224 288.863C291.932 289.014 291.68 289.222 291.466 289.488C291.258 289.754 291.094 290.058 290.974 290.402C290.859 290.741 290.802 291.1 290.802 291.48ZM302.021 296.183C301.432 296.183 300.898 296.084 300.419 295.886C299.945 295.683 299.536 295.399 299.193 295.035C298.854 294.67 298.594 294.238 298.411 293.738C298.229 293.238 298.138 292.691 298.138 292.097V291.769C298.138 291.082 298.239 290.47 298.443 289.933C298.646 289.392 298.922 288.933 299.271 288.558C299.62 288.183 300.015 287.899 300.458 287.707C300.901 287.514 301.359 287.418 301.833 287.418C302.437 287.418 302.958 287.522 303.396 287.73C303.838 287.938 304.2 288.23 304.482 288.605C304.763 288.975 304.971 289.412 305.107 289.918C305.242 290.418 305.31 290.965 305.31 291.558V292.207H298.997V291.027H303.864V290.918C303.844 290.543 303.765 290.178 303.63 289.824C303.5 289.47 303.291 289.178 303.005 288.949C302.719 288.72 302.328 288.605 301.833 288.605C301.505 288.605 301.203 288.675 300.927 288.816C300.651 288.952 300.414 289.155 300.216 289.425C300.018 289.696 299.864 290.027 299.755 290.418C299.646 290.808 299.591 291.259 299.591 291.769V292.097C299.591 292.498 299.646 292.876 299.755 293.23C299.87 293.579 300.034 293.886 300.247 294.152C300.466 294.418 300.729 294.626 301.036 294.777C301.349 294.928 301.703 295.004 302.099 295.004C302.609 295.004 303.041 294.899 303.396 294.691C303.75 294.483 304.06 294.204 304.325 293.855L305.2 294.55C305.018 294.827 304.786 295.09 304.505 295.34C304.224 295.59 303.877 295.793 303.466 295.949C303.06 296.105 302.578 296.183 302.021 296.183ZM308.568 287.574V296.027H307.114V287.574H308.568ZM307.005 285.332C307.005 285.097 307.075 284.899 307.216 284.738C307.362 284.577 307.575 284.496 307.857 284.496C308.133 284.496 308.344 284.577 308.489 284.738C308.64 284.899 308.716 285.097 308.716 285.332C308.716 285.556 308.64 285.748 308.489 285.91C308.344 286.066 308.133 286.144 307.857 286.144C307.575 286.144 307.362 286.066 307.216 285.91C307.075 285.748 307.005 285.556 307.005 285.332ZM314.427 287.574V288.683H309.857V287.574H314.427ZM311.403 285.519H312.849V293.933C312.849 294.22 312.893 294.436 312.982 294.582C313.07 294.728 313.185 294.824 313.325 294.871C313.466 294.918 313.617 294.941 313.778 294.941C313.898 294.941 314.023 294.931 314.153 294.91C314.289 294.884 314.39 294.863 314.458 294.847L314.466 296.027C314.351 296.063 314.2 296.097 314.013 296.129C313.831 296.165 313.609 296.183 313.349 296.183C312.995 296.183 312.669 296.113 312.372 295.972C312.075 295.832 311.838 295.597 311.661 295.269C311.489 294.936 311.403 294.488 311.403 293.925V285.519Z" fill="#333333"/>
<defs>
<linearGradient id="paint0_linear_18_2" x1="6970.43" y1="212.66" x2="99.0947" y2="7084" gradientUnits="userSpaceOnUse">
<stop stop-color="#797DA5"/>
<stop offset="0.508" stop-color="#6D7194"/>
<stop offset="1" stop-color="#626584"/>
</linearGradient>
<linearGradient id="paint1_linear_18_2" x1="7099.09" y1="206.535" x2="99.0945" y2="7206.54" gradientUnits="userSpaceOnUse">
<stop stop-color="#94B6C8"/>
<stop offset="1" stop-color="#6A9EBA"/>
</linearGradient>
<linearGradient id="paint2_linear_18_2" x1="7234.9" y1="206.735" x2="234.898" y2="7206.74" gradientUnits="userSpaceOnUse">
<stop stop-color="#CDC484"/>
<stop offset="1" stop-color="#B5AA59"/>
</linearGradient>
<linearGradient id="paint3_linear_18_2" x1="7228.75" y1="84.2" x2="228.745" y2="7084.2" gradientUnits="userSpaceOnUse">
<stop stop-color="#B06161"/>
<stop offset="0.4579" stop-color="#984E4E"/>
<stop offset="1" stop-color="#7C3838"/>
</linearGradient>
</defs>
</svg>
