<svg xmlns="http://www.w3.org/2000/svg" width="298.617" height="297.734" viewBox="0 0 298.617 297.734"><defs><style>.a{fill:#0b9fa3;}.b{fill:#fff;}</style></defs><path class="a" d="M149.309,0c82.461,0,149.309,66.65,149.309,148.867S231.769,297.734,149.309,297.734,0,231.084,0,148.867,66.848,0,149.309,0Z"/><g transform="translate(68 62)"><g transform="translate(55.902 106.133)"><g transform="translate(5.981)"><path class="b" d="M1230.975,2797.386a18.271,18.271,0,1,1,18.238-18.27A18.276,18.276,0,0,1,1230.975,2797.386Zm0-30.566a12.3,12.3,0,1,0,12.262,12.3A12.293,12.293,0,0,0,1230.975,2766.82Z" transform="translate(-1212.736 -2760.844)"/></g><g transform="translate(0 40.763)"><path class="b" d="M1245.161,2896.487h-5.976v-17.118a3.411,3.411,0,0,0-3.407-3.407H1206.1a3.411,3.411,0,0,0-3.407,3.407v17.118h-5.976v-17.118a9.393,9.393,0,0,1,9.382-9.383h29.675a9.393,9.393,0,0,1,9.383,9.383Z" transform="translate(-1196.721 -2869.986)"/></g></g><g transform="translate(109.884 123.94)"><path class="b" d="M1367.517,2848.006h-26.261v-5.976h23.273V2831.54l-9.43-20.521,5.43-2.5,9.7,21.116a2.989,2.989,0,0,1,.273,1.248v14.132A2.989,2.989,0,0,1,1367.517,2848.006Z" transform="translate(-1341.256 -2808.523)"/></g><g transform="translate(80.122 90.819)"><path class="b" d="M1298.941,2741.893l-7.387-16.075h-29.984v-5.976h31.9a2.989,2.989,0,0,1,2.715,1.74l8.187,17.816Z" transform="translate(-1261.569 -2719.842)"/></g><g transform="translate(21.111 123.106)"><path class="b" d="M1133.891,2846.607h-27.334a2.988,2.988,0,0,1-2.988-2.988v-14.132a2.983,2.983,0,0,1,.273-1.247l10.088-21.95,5.43,2.5-9.815,21.356v10.49h24.347Z" transform="translate(-1103.569 -2806.289)"/></g><g transform="translate(37.992 90.819)"><path class="b" d="M1154.2,2740.437l-5.43-2.5,7.518-16.359a2.988,2.988,0,0,1,2.715-1.74h31.9v5.976h-29.981Z" transform="translate(-1148.768 -2719.842)"/></g><g transform="translate(103.908 61.173)"><g transform="translate(20.363)"><path class="b" d="M1397.588,2676.087a17.811,17.811,0,1,1,17.81-17.811A17.831,17.831,0,0,1,1397.588,2676.087Zm0-29.646a11.835,11.835,0,1,0,11.834,11.835A11.849,11.849,0,0,0,1397.588,2646.441Z" transform="translate(-1379.777 -2640.465)"/></g><g transform="translate(0 36.456)"><path class="b" d="M1381.24,2796.683h-5.976v-48.55a4.087,4.087,0,0,0-4.082-4.082h-12.271a13.115,13.115,0,0,0-8.252,2.94L1339,2758.982a2.979,2.979,0,0,1-.6.475l-7.166,4.331.016,3.406,6.876-.153,20.518-10.058,2.631,5.366-21.11,10.347a2.985,2.985,0,0,1-1.249.3l-10.574.235a2.988,2.988,0,0,1-3.054-2.973l-.038-8.141a2.99,2.99,0,0,1,1.442-2.571l8.287-5.009,11.376-11.7a2.914,2.914,0,0,1,.327-.32,19.106,19.106,0,0,1,12.223-4.445h12.271a10.069,10.069,0,0,1,10.058,10.058Z" transform="translate(-1325.256 -2738.074)"/></g></g><g transform="translate(2.44 61.173)"><path class="b" d="M1071.388,2676.087a17.811,17.811,0,1,1,17.81-17.811A17.831,17.831,0,0,1,1071.388,2676.087Zm0-29.646a11.835,11.835,0,1,0,11.834,11.835A11.849,11.849,0,0,0,1071.388,2646.441Z" transform="translate(-1053.577 -2640.465)"/><g transform="translate(0 36.456)"><path class="b" d="M1059.553,2796.683h-5.976v-48.55a10.069,10.069,0,0,1,10.058-10.058h12.271a19.1,19.1,0,0,1,12.222,4.445,2.922,2.922,0,0,1,.33.322l11.39,11.717,7.147,4.473a2.986,2.986,0,0,1,1.4,2.546l-.038,8.141a2.988,2.988,0,0,1-2.89,2.973l-9.411.308a2.967,2.967,0,0,1-1.413-.3l-21.109-10.347,2.63-5.366,20.441,10.02,5.79-.19.016-3.6-6.042-3.781a3,3,0,0,1-.557-.45l-11.657-11.992a13.114,13.114,0,0,0-8.252-2.94h-12.271a4.087,4.087,0,0,0-4.082,4.082Z" transform="translate(-1053.577 -2738.074)"/></g></g><g transform="translate(0 7.968)"><path class="b" d="M1129.9,2578.4l-4.225-4.226,2.678-2.678-4.705-4.708a2.988,2.988,0,0,1-.436-3.671,32.986,32.986,0,0,0,3.923-9.481,2.989,2.989,0,0,1,2.9-2.287h6.661V2540.3h-6.661a2.987,2.987,0,0,1-2.9-2.287,33.042,33.042,0,0,0-3.924-9.486,2.989,2.989,0,0,1,.438-3.67l4.7-4.7-7.818-7.82-4.707,4.707a2.987,2.987,0,0,1-3.671.436,33.038,33.038,0,0,0-9.483-3.925,2.988,2.988,0,0,1-2.285-2.9v-6.659h-11.057v6.659a2.988,2.988,0,0,1-2.285,2.9,33.063,33.063,0,0,0-9.483,3.925,2.989,2.989,0,0,1-3.671-.437l-4.707-4.707-7.817,7.82,4.7,4.7a2.988,2.988,0,0,1,.437,3.671,32.94,32.94,0,0,0-3.921,9.48,2.988,2.988,0,0,1-2.9,2.288h-6.663v14.048h-5.976v-17.036a2.988,2.988,0,0,1,2.988-2.988h7.371a38.894,38.894,0,0,1,2.833-6.849l-5.206-5.206a2.988,2.988,0,0,1,0-4.225l12.042-12.046a2.988,2.988,0,0,1,4.226,0l5.209,5.209a39.029,39.029,0,0,1,6.849-2.835V2501a2.988,2.988,0,0,1,2.988-2.988h17.032a2.988,2.988,0,0,1,2.988,2.988v7.368a39.018,39.018,0,0,1,6.85,2.834l5.209-5.208a2.99,2.99,0,0,1,2.113-.875h0a2.989,2.989,0,0,1,2.113.875l12.042,12.046a2.988,2.988,0,0,1,0,4.225l-5.206,5.206a38.97,38.97,0,0,1,2.834,6.852h7.369a2.988,2.988,0,0,1,2.988,2.988v17.033a2.988,2.988,0,0,1-2.988,2.988h-7.37a38.914,38.914,0,0,1-2.834,6.85l5.206,5.209a2.988,2.988,0,0,1,0,4.225Z" transform="translate(-1047.045 -2498.01)"/><g transform="translate(28.17 28.17)"><path class="b" d="M1142.115,2612.726v-5.976a13.67,13.67,0,1,0-13.67-13.67h-5.976a19.646,19.646,0,1,1,19.646,19.646Z" transform="translate(-1122.469 -2573.434)"/></g></g><g transform="translate(89.812)"><path class="b" d="M1348.367,2532.561l-5.1-3.117a26.033,26.033,0,0,0,3.094-7.477,2.988,2.988,0,0,1,2.9-2.287h4.79v-7.755h-4.79a2.988,2.988,0,0,1-2.9-2.287,26.071,26.071,0,0,0-3.094-7.481,2.987,2.987,0,0,1,.437-3.67l3.383-3.383-5.483-5.484L1338.22,2493a2.987,2.987,0,0,1-3.672.435,26.071,26.071,0,0,0-7.479-3.1,2.988,2.988,0,0,1-2.285-2.9v-4.788h-7.755v4.788a2.987,2.987,0,0,1-2.285,2.9,26.069,26.069,0,0,0-7.479,3.1,2.989,2.989,0,0,1-3.672-.436l-3.385-3.385-5.483,5.484,3.383,3.383a2.987,2.987,0,0,1,.436,3.67,26,26,0,0,0-3.092,7.477l-5.809-1.4a31.973,31.973,0,0,1,2.64-7.121l-3.9-3.9a2.988,2.988,0,0,1,0-4.225l9.708-9.71a2.99,2.99,0,0,1,4.226,0l3.9,3.9a32,32,0,0,1,4.833-2v-5.515a2.988,2.988,0,0,1,2.988-2.988h13.731a2.988,2.988,0,0,1,2.988,2.988v5.514a32.049,32.049,0,0,1,4.834,2l3.9-3.9a2.988,2.988,0,0,1,2.113-.875h0a2.989,2.989,0,0,1,2.113.875l9.708,9.71a2.988,2.988,0,0,1,0,4.226l-3.9,3.9a32.059,32.059,0,0,1,2,4.836h5.515a2.988,2.988,0,0,1,2.988,2.988v13.731a2.988,2.988,0,0,1-2.988,2.988h-5.516A31.917,31.917,0,0,1,1348.367,2532.561Z" transform="translate(-1287.513 -2476.677)"/><g transform="translate(7.179 61.048)"><path class="b" d="M1329.071,2654.343H1323.1v-5.514a31.987,31.987,0,0,1-4.832-2l-3.9,3.9a2.989,2.989,0,0,1-2.112.875h0a2.988,2.988,0,0,1-2.112-.876l-3.4-3.406,4.227-4.224,1.291,1.292,3.385-3.383a2.987,2.987,0,0,1,3.668-.437,26.029,26.029,0,0,0,7.476,3.093,2.988,2.988,0,0,1,2.288,2.9Z" transform="translate(-1306.735 -2640.131)"/></g><g transform="translate(16.977 22.709)"><path class="b" d="M1349.386,2570.313A16.417,16.417,0,1,1,1365.8,2553.9,16.436,16.436,0,0,1,1349.386,2570.313Zm0-26.858a10.441,10.441,0,1,0,10.441,10.441A10.453,10.453,0,0,0,1349.386,2543.455Z" transform="translate(-1332.969 -2537.479)"/></g></g></g></svg>