<svg xmlns="http://www.w3.org/2000/svg" width="299" height="297" viewBox="0 0 299 297"><defs><style>.a{fill:#0b9fa3;}.b{fill:#fff;}</style></defs><g transform="translate(-324 -2304)"><g transform="translate(324.074 2304)"><ellipse class="a" cx="149.5" cy="148.5" rx="149.5" ry="148.5" transform="translate(-0.074)"/></g></g><g transform="translate(83 76)"><g transform="translate(33.684)"><g transform="translate(8.25 0)"><path class="b" d="M2706.019,1080.067a24.2,24.2,0,1,1,24.2-24.2A24.226,24.226,0,0,1,2706.019,1080.067Zm0-42.058a17.86,17.86,0,1,0,17.859,17.86A17.88,17.88,0,0,0,2706.019,1038.008Z" transform="translate(-2681.821 -1031.67)"/></g><g transform="translate(11.989 80.452)"><rect class="b" width="6.338" height="64.959"/></g><g transform="translate(46.603 80.452)"><rect class="b" width="6.338" height="64.952"/></g><g transform="translate(0 51.719)"><path class="b" d="M2676.381,1230.309A15.4,15.4,0,0,1,2661,1214.924V1177.61a15.4,15.4,0,0,1,15.384-15.385h17.063v6.338h-17.062a9.056,9.056,0,0,0-9.046,9.046v37.314a9.056,9.056,0,0,0,9.046,9.046Z" transform="translate(-2660.996 -1162.226)"/></g><g transform="translate(32.448 51.719)"><path class="b" d="M2759.968,1230.309v-6.338a9.056,9.056,0,0,0,9.046-9.046V1177.61a9.057,9.057,0,0,0-9.046-9.046h-17.063v-6.338h17.063a15.4,15.4,0,0,1,15.384,15.385v37.314A15.4,15.4,0,0,1,2759.968,1230.309Z" transform="translate(-2742.905 -1162.226)"/></g><g transform="translate(29.279 116.633)"><rect class="b" width="6.338" height="28.778"/></g></g><g transform="translate(88.173)"><g transform="translate(0 0)"><path class="b" d="M2811.69,1080.067a24.108,24.108,0,0,1-13.144-3.878l3.447-5.319a17.861,17.861,0,1,0,0-30l-3.447-5.319a24.2,24.2,0,1,1,13.143,44.518Z" transform="translate(-2798.546 -1031.67)"/></g><g transform="translate(27.3 80.452)"><rect class="b" width="6.338" height="64.952"/></g><g transform="translate(13.145 51.719)"><path class="b" d="M2848.791,1230.309v-6.338a9.056,9.056,0,0,0,9.046-9.046V1177.61a9.056,9.056,0,0,0-9.046-9.046h-17.063v-6.338h17.063a15.4,15.4,0,0,1,15.384,15.385v37.314A15.4,15.4,0,0,1,2848.791,1230.309Z" transform="translate(-2831.728 -1162.226)"/></g><g transform="translate(9.976 116.633)"><rect class="b" width="6.338" height="28.778"/></g></g><g transform="translate(8.25 0)"><path class="b" d="M2620.991,1080.067a24.2,24.2,0,1,1,13.143-44.518l-3.447,5.319a17.86,17.86,0,1,0,0,30l3.447,5.319A24.115,24.115,0,0,1,2620.991,1080.067Z" transform="translate(-2596.794 -1031.67)"/></g><g transform="translate(11.954 80.452)"><rect class="b" width="6.338" height="64.952"/></g><g transform="translate(0 51.719)"><path class="b" d="M2591.352,1230.309a15.4,15.4,0,0,1-15.385-15.385V1177.61a15.4,15.4,0,0,1,15.385-15.385h17.063v6.338h-17.063a9.056,9.056,0,0,0-9.046,9.046v37.314a9.056,9.056,0,0,0,9.046,9.046Z" transform="translate(-2575.967 -1162.226)"/></g><g transform="translate(29.278 116.633)"><rect class="b" width="6.338" height="28.778"/></g></g></svg>