<svg xmlns="http://www.w3.org/2000/svg" width="225.476" height="203.248" viewBox="0 0 225.476 203.248"><defs><style>.a{fill:#14d6c4;}.b{fill:#0b9fa3;}</style></defs><path class="a" d="M191.228,99.822A91.832,91.832,0,1,1,99.4,7.99a91.833,91.833,0,0,1,91.832,91.832" transform="translate(-7.564 -7.99)"/><g transform="translate(-7.564 -7.99)"><path class="b" d="M210.329,127.182l18.216,2.967v12.5l-18.216,2.963-.312,1.52a52.344,52.344,0,0,1-7.608,18.289l-.847,1.291,10.8,15-8.842,8.838-15-10.795-1.291.847a52.475,52.475,0,0,1-18.289,7.608l-1.519.312-2.968,18.211h-12.5l-2.963-18.211-1.519-.312a52.487,52.487,0,0,1-18.29-7.608l-1.291-.847-15.005,10.795-8.838-8.838,10.8-15-.848-1.291a52.31,52.31,0,0,1-7.6-18.289l-.312-1.52-18.219-2.963v-12.5l18.219-2.967.312-1.519a52.251,52.251,0,0,1,7.6-18.286l.848-1.29-10.8-15.006,8.838-8.838L125.741,91.5a32.922,32.922,0,0,0,11.054,20.217,31.513,31.513,0,1,0,42.791.014A32.915,32.915,0,0,0,190.66,91.5l12.86-9.257,8.842,8.838-10.8,15.006.852,1.294a52.352,52.352,0,0,1,7.608,18.282Zm-34.5-12.888a26.793,26.793,0,0,1-3.036,42.96v-40.89a32.207,32.207,0,0,0,3.036-2.07m-35.284-.021a32.153,32.153,0,0,0,3.066,2.091v40.893a26.838,26.838,0,0,1-3.066-42.984m46.148-27.478a28.5,28.5,0,0,1-17.052,26.079l-1.343.592v46.14a26.5,26.5,0,0,1-20.191,0V113.466l-1.343-.592a28.468,28.468,0,0,1,.768-52.481V86.581l.171,1.444,8.82,6.884a2.684,2.684,0,0,0,3.333.021l7.994-6.243,1.019-1.018V60.393a28.324,28.324,0,0,1,17.824,26.4m27.391,36.444a56.681,56.681,0,0,0-7.077-17.021l11.239-15.612L203.994,76.36l-12.9,9.285a32.769,32.769,0,0,0-23.167-30.35,2.765,2.765,0,0,0-3.556,2.643V85.7l-6.169,4.82-6.176-4.82V57.938a2.786,2.786,0,0,0-1.111-2.212,2.821,2.821,0,0,0-2.459-.426,32.758,32.758,0,0,0-23.149,30.345L112.4,76.36,98.158,90.606,109.4,106.218a56.727,56.727,0,0,0-7.077,17.021L83.363,126.33v20.142l18.957,3.087a56.587,56.587,0,0,0,7.077,17.025L98.158,182.2,112.4,196.442l15.611-11.235a56.787,56.787,0,0,0,17.025,7.078l3.087,18.953h20.143l3.09-18.953a56.771,56.771,0,0,0,17.026-7.078l15.607,11.235L218.245,182.2l-11.239-15.612a56.842,56.842,0,0,0,7.077-17.025l18.957-3.087V126.33Z"/></g></svg>