<svg xmlns="http://www.w3.org/2000/svg" width="220.647" height="205.938" viewBox="0 0 220.647 205.938"><defs><style>.a{fill:#14d6c4;}.b{fill:#009b9e;}</style></defs><g transform="translate(-7.564 -7.99)"><path class="a" d="M191.228,99.822A91.832,91.832,0,1,1,99.4,7.99a91.833,91.833,0,0,1,91.832,91.832"/></g><g transform="translate(-7.564 -7.99)"><path class="b" d="M211.507,114.1a5.527,5.527,0,1,1,5.528,5.527,5.533,5.533,0,0,1-5.528-5.527M199.5,116.094h7.652a10.089,10.089,0,1,0,.133-4.565H199.5Zm-2.6-29.038a5.527,5.527,0,1,1,5.527,5.528,5.533,5.533,0,0,1-5.527-5.528m-12.008,1.993h7.652a10.09,10.09,0,1,0,.134-4.564h-7.786Zm8.987,22.48h-6.308v4.564h6.308ZM70.434,114.1a5.528,5.528,0,1,1,5.528,5.527,5.533,5.533,0,0,1-5.528-5.527m-4.564,0a10.087,10.087,0,0,0,19.975,1.994H93.5v-4.565H85.711A10.086,10.086,0,0,0,65.87,114.1M95.806,87.056a5.528,5.528,0,1,1-5.527-5.526,5.534,5.534,0,0,1,5.527,5.526m4.356,1.993h7.652V84.485h-7.785a10.095,10.095,0,1,0,.133,4.564m5.262,22.48H99.116v4.564h6.308ZM80.187,58.639a5.527,5.527,0,1,1-5.527-5.528,5.533,5.533,0,0,1,5.527,5.528m4.356,1.994h28.911V56.068H84.409a10.091,10.091,0,1,0,.134,4.565m35.2,23.852h-6.309v4.564h6.309Zm-.448-23.852h8.478V56.069h-8.478Zm24.544,147.022L96.321,183.633V140.65l47.517,22.83Zm0-49.238-9.123-4.383V117.415l9.123-4.981Zm-13.688-6.576-9.753-4.686V125.231l9.753-5.324Zm-14.317-6.879-16.795-8.07,16.795-9.169ZM148.4,114.088l9.591,4.743v34.677L148.4,158.12Zm0,49.1,48.059-23.11v41.858L148.4,207.546Zm45.136-26.768-16.374,7.874V128.315ZM172.6,146.484l-10.043,4.829V121.09l10.043,4.967ZM148.4,60.633h10.661V56.068H133.177v4.565h10.661v46.6l-9.123,4.981V84.485h-8.266v4.564h3.7v25.657l-9.753,5.326v-8.5h-8.265v4.565h3.7v6.429L91.757,135.668v50.771l54.223,27.412.15.077,54.895-29.258V135.027l-23.861-11.8v-7.128h3.7v-4.565H172.6v9.436L162.557,116V89.049h3.7V84.485h-8.265V113.74L148.4,109Zm16.606,0h8.478V56.069h-8.478Zm7.958,28.416h6.308V84.485h-6.308Zm50.681-30.41a5.528,5.528,0,1,1-5.528-5.528,5.534,5.534,0,0,1,5.528,5.528m4.564,0a10.086,10.086,0,0,0-19.841-2.571H179.326v4.565h28.91a10.087,10.087,0,0,0,19.975-1.994"/></g></svg>