<?xml version="1.0" standalone="no"?>
<!DOCTYPE svg PUBLIC "-//W3C//DTD SVG 20010904//EN"
 "http://www.w3.org/TR/2001/REC-SVG-20010904/DTD/svg10.dtd">
<svg version="1.0" xmlns="http://www.w3.org/2000/svg"
 width="512.000000pt" height="512.000000pt" viewBox="0 0 512.000000 512.000000"
 preserveAspectRatio="xMidYMid meet">
<metadata>
Created by potrace 1.14, written by Peter Selinger 2001-2017
</metadata>
<g transform="translate(0.000000,512.000000) scale(0.100000,-0.100000)"
fill="#000000" stroke="none">
<path d="M2368 5115 c-1 -1 -32 -5 -68 -9 -36 -3 -92 -11 -125 -16 -33 -6 -76
-13 -95 -16 -56 -7 -292 -71 -363 -98 -36 -13 -68 -22 -71 -19 -3 4 -6 1 -6
-5 0 -7 -8 -12 -18 -12 -10 0 -22 -3 -26 -7 -4 -5 -11 -8 -14 -9 -43 -5 -419
-207 -476 -256 -6 -5 -47 -36 -91 -69 -138 -104 -288 -243 -385 -358 -25 -30
-49 -59 -55 -65 -58 -65 -173 -231 -232 -336 -67 -120 -84 -153 -127 -252 -59
-136 -96 -241 -132 -378 -6 -21 -43 -184 -44 -190 0 -3 -2 -18 -5 -35 -3 -16
-7 -43 -10 -60 -27 -170 -28 -562 0 -720 2 -16 7 -43 9 -60 31 -214 121 -492
226 -705 73 -148 102 -198 137 -245 5 -5 14 -22 22 -37 8 -15 22 -37 33 -47
10 -11 18 -23 18 -26 0 -6 58 -84 71 -95 3 -3 12 -14 20 -26 100 -147 375
-399 589 -540 234 -156 546 -292 800 -350 83 -18 172 -36 205 -40 22 -3 46 -7
54 -10 54 -18 475 -26 606 -11 124 13 140 15 165 21 14 3 39 8 55 11 80 15
177 38 240 57 39 12 75 23 80 24 11 2 169 60 195 71 8 3 18 5 23 5 4 -1 7 3 7
8 0 6 6 10 13 10 22 0 277 133 311 163 11 9 23 17 27 17 5 0 29 15 55 33 25
17 53 37 62 42 20 13 51 37 67 52 8 7 18 13 23 13 6 0 12 3 14 8 2 4 32 32 68
62 135 114 380 378 373 402 -2 4 1 8 7 8 5 0 27 26 47 58 21 31 41 59 44 62 5
5 31 46 83 133 34 59 124 241 151 307 57 141 121 351 140 459 3 19 7 37 9 40
4 7 15 76 32 211 11 85 11 445 1 535 -5 39 -10 84 -12 101 -2 18 -11 67 -20
110 -9 44 -18 88 -20 99 -30 156 -132 430 -233 625 -61 118 -204 335 -267 406
-5 7 -26 31 -45 55 -19 23 -78 86 -130 138 -85 86 -116 114 -210 192 -14 11
-35 28 -46 39 -23 19 -171 120 -244 166 -48 29 -314 164 -325 164 -4 0 -21 7
-38 14 -28 13 -233 86 -247 88 -3 0 -9 2 -15 4 -31 9 -188 45 -221 49 -21 4
-46 8 -54 10 -8 2 -35 7 -60 10 -25 3 -63 8 -85 11 -42 6 -461 15 -467 9z
m348 -1276 c3 -5 10 -7 15 -3 5 3 33 0 62 -5 28 -6 61 -13 72 -15 59 -12 173
-54 270 -102 251 -123 451 -323 580 -579 31 -61 57 -118 58 -126 2 -8 6 -19 9
-25 4 -6 9 -21 12 -35 3 -13 12 -48 20 -78 8 -30 18 -77 21 -104 4 -28 9 -59
11 -71 6 -27 6 -235 1 -261 -3 -11 -8 -47 -12 -79 -17 -155 -143 -458 -227
-550 -10 -11 -18 -23 -18 -28 0 -4 -12 -21 -27 -37 -16 -16 -46 -49 -68 -73
-22 -24 -65 -63 -95 -88 -30 -25 -57 -48 -60 -51 -12 -13 -99 -69 -108 -69 -6
0 -12 -4 -14 -9 -10 -26 -263 -127 -391 -155 -95 -22 -365 -29 -457 -12 -148
26 -259 61 -378 119 -118 58 -182 97 -182 110 0 6 -3 8 -6 4 -4 -3 -12 -1 -19
6 -7 7 -32 28 -56 47 -89 72 -198 195 -258 293 -12 20 -27 34 -33 31 -7 -4 -8
-2 -4 4 3 6 -9 42 -28 79 -37 72 -87 215 -105 298 -6 28 -14 64 -17 80 -4 17
-8 98 -9 180 -3 153 8 252 41 364 9 31 17 61 18 66 8 51 145 320 175 345 3 3
19 23 35 45 48 66 197 207 277 261 176 120 363 195 545 220 27 3 50 7 52 9 8
8 293 2 298 -6z"/>
</g>
</svg>
