<?xml version="1.0" encoding="utf-8"?>
<svg viewBox="-0.004 -0.001 127.495 127.532" xmlns="http://www.w3.org/2000/svg">
  <defs>
    <style>.a{fill:#fff;}.b{fill:#b5e7d6;}.c{fill:#0b9fa3;}.d{fill:#14d6c4;}</style>
  </defs>
  <path class="b" d="M118.247,27.22c-.045-.053-.086-.109-.131-.162-.53-.632-1.08-1.253-1.639-1.869-.073-.081-.141-.164-.214-.245l0,0c-1.062-1.16-2.165-2.26-3.291-3.323-.117-.11-.23-.224-.348-.333-1.107-1.03-2.246-2.007-3.409-2.943-.122-.1-.244-.2-.368-.3q-1.8-1.434-3.69-2.719l-.144-.1a63.869,63.869,0,0,0-66.3-3.193l.016.018A63.7,63.7,0,0,1,69.945,4.3,16.3,16.3,0,0,1,83.658,20.665,15.888,15.888,0,0,1,71.027,35.9c-.3-.015-.6-.008-.893-.015A32.148,32.148,0,0,1,101.406,67.9c0,.09-.024,1.376-.055,1.929-.016.279-.142,1.777-.2,2.245-.054.423-.3,1.964-.371,2.312-.156.769-.688,2.728-.754,2.948a32.085,32.085,0,0,1-4.567,9.341,15.819,15.819,0,0,0,5.81,20.019,16.269,16.269,0,0,0,20.633-2.7c.185-.243.289-.467.439-.692l-.072.111A63.913,63.913,0,0,0,118.247,27.22Z" transform="matrix(1, 0, 0, 1, -5.473, -4.267)"/>
  <path class="c" d="M17.7,105.389a16.068,16.068,0,0,1,4.213-21.915,15.694,15.694,0,0,1,20.12,1.847c.021.033.044.066.066.1a32.316,32.316,0,0,1-5-18.658c0-.076.005-.151.008-.227a32.3,32.3,0,0,1,.788-5.7c.05-.22.58-2.218.836-2.986.044-.133.079-.269.126-.4.3-.853.638-1.694,1.008-2.524.112-.252.235-.5.354-.749.3-.623,1.217-2.325,1.357-2.561q.691-1.164,1.486-2.281c.14-.195,1.329-1.721,1.806-2.275.2-.232.4-.464.61-.692.6-.657,1.226-1.3,1.89-1.916.048-.045,1.652-1.438,2.436-2.035.236-.178,1.852-1.3,2.434-1.666.28-.175.556-.359.84-.524a32.212,32.212,0,0,1,8.672-3.478c.116-.027.232-.048.348-.074.589-.134,1.18-.256,1.774-.356.282-.048.565-.083.849-.124.421-.06.842-.118,1.265-.16.4-.041.794-.069,1.192-.1.3-.019.6-.038.9-.049.49-.018.98-.023,1.47-.019.2,0,.391,0,.587.01.3.007.595,0,.893.015A15.888,15.888,0,0,0,83.658,20.665,16.3,16.3,0,0,0,69.945,4.3,63.717,63.717,0,0,0,30.038,17.743c-.218.169-.434.34-.65.513-1.1.879-2.18,1.785-3.232,2.748l-.006.005-.013.013c-.729.668-1.433,1.354-2.124,2.048-.228.229-.449.462-.673.694q-.694.719-1.363,1.454c-.249.274-.5.549-.74.827-.42.479-.827.964-1.23,1.452-.225.273-.456.542-.676.818q-.829,1.042-1.612,2.111c-.28.382-.545.773-.815,1.161-.257.368-.515.736-.763,1.109-.3.457-.6.918-.891,1.381q-.27.432-.534.866c-.318.525-.633,1.05-.935,1.582-.061.107-.118.216-.178.323a63.8,63.8,0,0,0,6.408,71.721c-.7-.908-1.343-1.773-1.921-2.605C17.958,105.78,17.833,105.592,17.7,105.389Z" transform="matrix(1, 0, 0, 1, -5.473, -4.267)"/>
  <path class="d" d="M101.268,106.7a15.82,15.82,0,0,1-5.81-20.019l.01-.015a31,31,0,0,1-7.076,7.2q-.984.732-2.007,1.377c-.172.108-.343.216-.516.321q-1.044.632-2.124,1.178c-.117.059-.231.126-.349.184q-1.239.607-2.514,1.1c-.214.082-.432.15-.647.228q-.9.327-1.81.6c-.379.113-.76.215-1.142.313-.424.11-.851.206-1.279.3-.474.1-.949.205-1.427.285-.191.032-.383.051-.575.08a32.364,32.364,0,0,1-17.265-2.176s-3.257-1.474-4.779-2.43a31.785,31.785,0,0,1-4.726-3.639c-.606-.562-1.2-1.143-1.768-1.763-.285-.311-.556-.63-.826-.95-.04-.047-.083-.093-.122-.14-.268-.321-.524-.647-.778-.975-.041-.054-.084-.106-.124-.159-.258-.339-.506-.682-.748-1.028-.03-.043-.061-.085-.09-.128q-.35-.5-.677-1.019c-.022-.033-.045-.066-.066-.1a15.694,15.694,0,0,0-20.12-1.847A16.068,16.068,0,0,0,17.7,105.389c.133.2.258.391.39.575.578.832,1.22,1.7,1.921,2.605.076.093.149.188.227.281.628.753,1.272,1.5,1.941,2.23.013.013.024.028.037.041l.022.024c.648.707,1.316,1.385,1.988,2.056.237.234.473.469.712.7q.886.855,1.8,1.669c.342.305.69.6,1.037.9.173.148.349.29.523.436,1.309,1.1,2.643,2.151,4.018,3.128l-.005,0c.34.242.69.468,1.034.7.412.28.82.57,1.237.84.8.521,1.617,1.019,2.438,1.5.235.137.475.264.711.4.641.364,1.286.722,1.936,1.063.238.124.478.241.717.361q1.01.513,2.032.989c.2.1.41.186.615.278q1.125.507,2.265.968l.417.168q1.337.529,2.692,1l.027.01a63.888,63.888,0,0,0,50.707-3.935c.113-.061.225-.125.338-.186q1.128-.607,2.239-1.264c.221-.132.441-.267.662-.4q.942-.575,1.869-1.184c.267-.176.532-.352.8-.531q.861-.586,1.705-1.2c.275-.2.551-.4.823-.6.575-.434,1.142-.884,1.706-1.34.239-.193.481-.378.718-.575.789-.657,1.569-1.331,2.334-2.033a63.944,63.944,0,0,0,9.573-11.064A16.314,16.314,0,0,1,101.268,106.7Z" transform="matrix(1, 0, 0, 1, -5.473, -4.267)"/>
</svg>