<svg xmlns="http://www.w3.org/2000/svg" width="224.948" height="202.34" viewBox="0 0 224.948 202.34"><defs><style>.a{fill:#14d6c4;}.b{fill:#009b9e;}</style></defs><g transform="translate(-7.564 -7.99)"><path class="a" d="M191.228,99.822A91.832,91.832,0,1,1,99.4,7.99a91.833,91.833,0,0,1,91.832,91.832"/></g><g transform="translate(-7.564 -7.99)"><path class="b" d="M201.831,169.006a10.643,10.643,0,1,1-10.643-10.644,10.655,10.655,0,0,1,10.643,10.644m4.7,0a15.34,15.34,0,1,0-15.34,15.34,15.357,15.357,0,0,0,15.34-15.34m-72.254-12.742h-5.7v-31.68h5.7Zm4.7-36.377H123.88v41.074h15.091Zm-25.483,36.377h-5.7V145.371h5.7Zm4.7-15.59H103.093v20.287h15.091ZM92.7,156.264H87v-16.09h5.7Zm4.7-20.787H82.307v25.484H97.4ZM82.307,83.01H87v-4.7h-4.7Zm0,10.394H87v-4.7h-4.7Zm0,10.393H87V99.1h-4.7Zm0,10.393H87v-4.7h-4.7ZM92.7,83.01h35.877v-4.7H92.7Zm0,10.394h35.877v-4.7H92.7Zm0,10.393h35.877V99.1H92.7Zm0,10.393h35.877v-4.7H92.7ZM227.815,67.67a13.242,13.242,0,1,1-13.242-13.242A13.257,13.257,0,0,1,227.815,67.67m-86,44.422a2.849,2.849,0,1,1,2.848-2.848,2.85,2.85,0,0,1-2.848,2.848M165.2,88.707a2.848,2.848,0,1,1,2.849-2.848,2.852,2.852,0,0,1-2.849,2.848m15.59,15.59a2.848,2.848,0,1,1,2.849-2.848,2.852,2.852,0,0,1-2.849,2.848m19.564-25.73-16.17,16.171-.16-.076a7.3,7.3,0,0,0-6.464,0l-.16.077-5.486-5.486.076-.16a7.474,7.474,0,0,0,.755-3.233,7.545,7.545,0,1,0-15.09,0,7.387,7.387,0,0,0,.758,3.229l.076.16-.125.126L145.212,102.53l-.159-.076a7.469,7.469,0,0,0-3.234-.755,7.545,7.545,0,1,0,7.545,7.545,7.4,7.4,0,0,0-.758-3.231l-.076-.159.125-.126,13.156-13.156.159.077a7.321,7.321,0,0,0,6.465,0l.16-.077,5.485,5.486-.076.16a7.466,7.466,0,0,0-.755,3.234,7.545,7.545,0,1,0,15.09,0,7.431,7.431,0,0,0-.757-3.231l-.076-.16,16.172-16.17.174.13a17.892,17.892,0,0,0,8.159,3.387l.214.032v48.057l-.376-.218a41.072,41.072,0,0,0-51.654,8.49l-.438.5V130.281h-15.09v30.68h6.007l-.056.3a41.373,41.373,0,0,0-.622,5.165l-.014.235H76.611V72.617H197.338l.053.179a17.882,17.882,0,0,0,2.837,5.6Zm-48.455,77.7h-2.539V134.977h5.7v14.01l-.031.057a41.2,41.2,0,0,0-3.071,7.048Zm2.658,12.742a36.725,36.725,0,0,1,34.011-36.495l.267-.019v10.889l-.225.022a25.681,25.681,0,0,0-20.867,36.164l.094.206-9.443,5.452-.118-.241a36.166,36.166,0,0,1-3.719-15.978m6.16,20.3,9.477-5.473.133.183a25.646,25.646,0,0,0,41.713,0l.133-.183,9.478,5.473-.151.223a36.591,36.591,0,0,1-60.633,0Zm51.5-20.3a21.037,21.037,0,1,1-21.037-21.037,21.061,21.061,0,0,1,21.037,21.037m11.752,16.219-9.442-5.452.094-.206A25.683,25.683,0,0,0,193.762,143.4l-.226-.022V132.492l.268.019a36.726,36.726,0,0,1,34.011,36.495,36.15,36.15,0,0,1-3.721,15.978ZM232.512,67.67a17.939,17.939,0,1,0-35.878,0v.25H71.913V171.354h78.069l.014.234A41.3,41.3,0,1,0,217.015,136.8l-.094-.075V85.434l.214-.031A18.016,18.016,0,0,0,232.512,67.67"/></g></svg>