<svg xmlns="http://www.w3.org/2000/svg" width="217.555" height="198.475" viewBox="0 0 217.555 198.475"><defs><style>.a{fill:#14d6c4;}.b{fill:#009b9e;}</style></defs><g transform="translate(-7.564 -7.99)"><path class="a" d="M191.228,99.822A91.832,91.832,0,1,1,99.4,7.99a91.833,91.833,0,0,1,91.832,91.832"/></g><g transform="translate(-7.564 -7.99)"><path class="b" d="M168.446,132.847l-20.131,20.13,3.788,3.788,20.131-20.13Zm10.309-48.739-50.934,50.935,3.787,3.788L182.543,87.9Zm-31.775-4.5L122.356,103.3l3.714,3.861L150.7,83.471ZM86.429,162.033l11.962-11.962L94.6,146.284,82.64,158.245ZM88.3,180.326l26.059-26.121-3.793-3.784L84.51,176.542Zm14.427,4.891,11.962-11.961-3.787-3.788L98.943,181.429ZM213.505,159.67l-11.962,11.961,3.788,3.787,11.961-11.96Zm-.335-19.048-26.059,26.121,3.793,3.784,26.058-26.121ZM197.2,136.485l-11.962,11.962,3.788,3.788,11.962-11.963ZM192.881,195.5H209.8v-5.357H192.881Zm27.97,2.021a2.5,2.5,0,0,1-2.5,2.5H184.327a2.5,2.5,0,0,1-2.5-2.5V186.541h39.022Zm0-15.253H181.829v-49.2a2.5,2.5,0,0,1,2.5-2.5h34.026a2.5,2.5,0,0,1,2.5,2.5ZM196.878,126.3h-5.24V70.494a8.592,8.592,0,0,0-8.582-8.584H113.537a8.593,8.593,0,0,0-8.583,8.584v54.542h-4.877V64.163a6.865,6.865,0,0,1,6.857-6.858H190.02a6.866,6.866,0,0,1,6.858,6.858Zm-79.664,3a2.5,2.5,0,0,1,2.5,2.5v4.874H76.379V131.8a2.5,2.5,0,0,1,2.5-2.5ZM76.379,140.945h43.333v47.173H76.379Zm0,51.439h20.8l-.731.243a5.053,5.053,0,0,0-.628,9.333l.483.238H78.877a2.5,2.5,0,0,1-2.5-2.5Zm19.707,5.06a2,2,0,1,1,2,2,2,2,0,0,1-2-2m3.7,4.754.483-.238a5.053,5.053,0,0,0-.63-9.333l-.73-.243h20.8V199.7a2.5,2.5,0,0,1-2.5,2.5Zm17.428-77.162h-7.447V70.494a3.774,3.774,0,0,1,3.77-3.77h69.519a3.774,3.774,0,0,1,3.769,3.77V126.3h-2.5a6.773,6.773,0,0,0-6.766,6.766v31.723H123.98V131.8a6.773,6.773,0,0,0-6.766-6.766M123.98,169.6h24.241l-.4.233a4.721,4.721,0,0,0-.373,7.95l.32.227H123.98Zm24.348,4.34a1.883,1.883,0,1,1,1.883,1.883,1.886,1.886,0,0,1-1.883-1.883m3.791-4.34H177.56v8.41H152.577l.32-.227a4.721,4.721,0,0,0-.374-7.95Zm73,27.92V133.07a6.773,6.773,0,0,0-6.766-6.766H201.691V64.163A11.685,11.685,0,0,0,190.02,52.492H106.934a11.684,11.684,0,0,0-11.67,11.671v60.873H78.877a6.773,6.773,0,0,0-6.766,6.766v67.9a6.773,6.773,0,0,0,6.766,6.765h38.337a6.773,6.773,0,0,0,6.766-6.765V182.829h53.581v14.7a6.774,6.774,0,0,0,6.766,6.767h34.026a6.774,6.774,0,0,0,6.766-6.767"/></g></svg>