<svg xmlns="http://www.w3.org/2000/svg" width="228.168" height="204.268" viewBox="0 0 228.168 204.268"><defs><style>.a{fill:#14d6c4;}.b{fill:#009b9e;}</style></defs><g transform="translate(-7.564 -7.99)"><path class="a" d="M191.228,99.822A91.832,91.832,0,1,1,99.4,7.99a91.833,91.833,0,0,1,91.832,91.832"/></g><g transform="translate(-7.564 -7.99)"><path class="b" d="M150.349,120.113a16.48,16.48,0,1,0,3.433,3.335l15.379-15.378a38.892,38.892,0,1,1-3.383-3.387Zm2.185,13.3a11.766,11.766,0,1,1-11.766-11.766,11.78,11.78,0,0,1,11.766,11.766m51.832-.007A64.469,64.469,0,1,1,183.772,86.69L169.162,101.3a43.759,43.759,0,1,0,3.383,3.387l14.609-14.61a63.526,63.526,0,0,1,17.212,43.332m6.39-85.417,2.272,12.827,12.822,2.268L211.135,77.805l-14.309-.785-.79-14.309ZM213.005,82.7l22.727-22.732L217.16,56.686,213.869,38.11,191.137,60.842l.968,17.515-4.95,4.95A68.5,68.5,0,1,0,99.1,187.987L89.088,210.295l4.366,1.963,9.57-21.318a68.034,68.034,0,0,0,74.939-.082l9.416,20.97,4.366-1.964-9.874-21.99a67.97,67.97,0,0,0,8.666-101.181l4.953-4.952Z"/></g></svg>