<svg xmlns="http://www.w3.org/2000/svg" width="299" height="297" viewBox="0 0 299 297"><defs><style>.a{fill:#0b9fa3;}.b{fill:#fff;}</style></defs><g transform="translate(0.074)"><ellipse class="a" cx="149.5" cy="148.5" rx="149.5" ry="148.5" transform="translate(-0.074)"/></g><g transform="translate(48 57)"><g transform="translate(-774.492 -2451.5)"><g transform="translate(-989.283 2219.917)"><g transform="translate(1763.774 279.1)"><path class="b" d="M1807.82,444.643a44.046,44.046,0,1,1,44.046-44.046A44.1,44.1,0,0,1,1807.82,444.643Zm0-82.008a37.962,37.962,0,1,0,37.962,37.962A38.005,38.005,0,0,0,1807.82,362.636Z" transform="translate(-1763.774 -356.552)"/></g><g transform="translate(1874.886 231.583)"><path class="b" d="M2092,303.6a36.007,36.007,0,1,1,36.007-36.007A36.048,36.048,0,0,1,2092,303.6Zm0-65.931a29.923,29.923,0,1,0,29.923,29.923A29.957,29.957,0,0,0,2092,237.667Z" transform="translate(-2055.996 -231.583)"/></g><g transform="translate(1842.478 280.555)"><rect class="b" width="43.111" height="6.084" transform="translate(0 20.456) rotate(-28.326)"/></g><g transform="translate(1874.886 342.7)"><path class="b" d="M2092,595.833a36.007,36.007,0,1,1,36.007-36.007A36.048,36.048,0,0,1,2092,595.833Zm0-65.93a29.923,29.923,0,1,0,29.923,29.923A29.957,29.957,0,0,0,2092,529.9Z" transform="translate(-2055.996 -523.819)"/></g><g transform="translate(1842.478 339.932)"><rect class="b" width="6.084" height="43.111" transform="translate(0 5.355) rotate(-61.676)"/></g><g transform="translate(1781.729 294.913)"><g transform="translate(6.499)"><path class="b" d="M1847.694,437.356a19.608,19.608,0,1,1,19.607-19.608A19.63,19.63,0,0,1,1847.694,437.356Zm0-33.131a13.524,13.524,0,1,0,13.523,13.524A13.539,13.539,0,0,0,1847.694,404.225Z" transform="translate(-1828.087 -398.141)"/></g><g transform="translate(0 40.742)"><path class="b" d="M1817.08,517.956H1811a12.679,12.679,0,0,1,12.664-12.665H1837.1v6.084H1823.66A6.588,6.588,0,0,0,1817.08,517.956Z" transform="translate(-1810.996 -505.291)"/></g><g transform="translate(26.106 40.742)"><path class="b" d="M1905.76,517.956h-6.084a6.588,6.588,0,0,0-6.581-6.581h-13.441v-6.084H1893.1A12.679,12.679,0,0,1,1905.76,517.956Z" transform="translate(-1879.655 -505.291)"/></g></g><g transform="translate(1891.698 245.641)"><g transform="translate(4.551)"><path class="b" d="M2126.825,297.842a14.643,14.643,0,1,1,14.643-14.643A14.66,14.66,0,0,1,2126.825,297.842Zm0-23.2a8.56,8.56,0,1,0,8.559,8.559A8.569,8.569,0,0,0,2126.825,274.639Z" transform="translate(-2112.182 -268.555)"/></g><g transform="translate(0 31.076)"><path class="b" d="M2106.3,360.065h-6.084a9.792,9.792,0,0,1,9.781-9.781h9.413v6.084h-9.413A3.7,3.7,0,0,0,2106.3,360.065Z" transform="translate(-2100.212 -350.284)"/></g><g transform="translate(19.195 31.076)"><path class="b" d="M2169.888,360.065H2163.8a3.7,3.7,0,0,0-3.7-3.7h-9.413v-6.084h9.413A9.792,9.792,0,0,1,2169.888,360.065Z" transform="translate(-2150.693 -350.284)"/></g></g><g transform="translate(1891.698 356.758)"><g transform="translate(4.551)"><path class="b" d="M2126.825,590.077a14.643,14.643,0,1,1,14.643-14.643A14.66,14.66,0,0,1,2126.825,590.077Zm0-23.2a8.56,8.56,0,1,0,8.559,8.56A8.569,8.569,0,0,0,2126.825,566.874Z" transform="translate(-2112.182 -560.79)"/></g><g transform="translate(0 31.076)"><path class="b" d="M2106.3,652.3h-6.084a9.792,9.792,0,0,1,9.781-9.781h9.413V648.6h-9.413A3.7,3.7,0,0,0,2106.3,652.3Z" transform="translate(-2100.212 -642.519)"/></g><g transform="translate(19.195 31.076)"><path class="b" d="M2169.888,652.3H2163.8a3.7,3.7,0,0,0-3.7-3.7h-9.413v-6.084h9.413A9.792,9.792,0,0,1,2169.888,652.3Z" transform="translate(-2150.693 -642.519)"/></g></g></g></g></g></svg>