<svg xmlns="http://www.w3.org/2000/svg" width="221.731" height="202.175" viewBox="0 0 221.731 202.175"><defs><style>.a{fill:#14d6c4;}.b{fill:#009b9e;}</style></defs><g transform="translate(-7.564 -7.99)"><path class="a" d="M191.228,99.822A91.832,91.832,0,1,1,99.4,7.99a91.833,91.833,0,0,1,91.832,91.832"/></g><path class="b" d="M224.794,193.408h-43.8l-.024-47.251a13.975,13.975,0,0,0-6.47-11.882l-1.148-.729-7.577-2.5-9.125-2.794a9.216,9.216,0,0,1,4.705-3.32l9.137-2.8,0,.032L180.658,119l8.993,6.122L198.645,119l19.556,5.986a9.359,9.359,0,0,1,6.593,9.038Zm-48.327,12.137H106.183V146.157a9.358,9.358,0,0,1,6.593-9.038l19.556-5.986,8.993,6.122,8.994-6.122,19.555,5.986a9.359,9.359,0,0,1,6.593,9.038V193.9l-.194.022v4.1h.194Zm-74.784-59.388-.045,47.251H57.811V134.02a9.359,9.359,0,0,1,6.593-9.038l19.554-5.988,9,6.124L101.947,119l17.173,5.3v-.047l2.216.678a9.229,9.229,0,0,1,4.7,3.31l-9.157,2.8-7.575,2.5-1.149.729a13.977,13.977,0,0,0-6.469,11.882M77.945,92.986v-6.5h8.576A29.237,29.237,0,0,0,98,84.11l.331-.142.289.212a11.779,11.779,0,0,0,7.03,2.307h2.311v6.5a15.423,15.423,0,0,1-7.5,13.241l-1.128.667v8.341l-6.379,4.339-6.378-4.339v-8.341l-1.128-.667a15.422,15.422,0,0,1-7.5-13.241m.3-11.868a14.952,14.952,0,0,1,29.411,0l.149.749h-2.158a7.548,7.548,0,0,1-5.358-2.263l-1.146-1.168-1.446.736a24.672,24.672,0,0,1-11.178,2.695H78.1Zm48.07,24.005v-6.5h2.311a11.782,11.782,0,0,0,7.031-2.307l.29-.212.329.142a29.242,29.242,0,0,0,11.479,2.377h8.576v6.5a15.423,15.423,0,0,1-7.5,13.241l-1.129.667v8.341l-6.379,4.339-6.378-4.339v-8.341l-1.128-.667a15.425,15.425,0,0,1-7.5-13.241m.3-11.868a14.953,14.953,0,0,1,29.412,0l.15.749h-8.424a24.712,24.712,0,0,1-11.184-2.695l-1.445-.736-1.144,1.168A7.535,7.535,0,0,1,128.628,94H126.47Zm48.024-.269v-6.5h2.312a11.777,11.777,0,0,0,7.03-2.307l.29-.212.33.142a29.236,29.236,0,0,0,11.477,2.377h8.577v6.5a15.423,15.423,0,0,1-7.5,13.241l-1.129.667v8.341l-6.379,4.339-6.379-4.339v-8.341l-1.128-.667a15.425,15.425,0,0,1-7.5-13.241m.3-11.868a14.952,14.952,0,0,1,29.411,0l.149.749h-8.424A24.721,24.721,0,0,1,184.9,79.172l-1.444-.736L182.31,79.6a7.538,7.538,0,0,1-5.355,2.263H174.8Zm54.349,52.9a13.931,13.931,0,0,0-9.806-13.462l-18.958-5.805v-5.244l.262-.187a20.074,20.074,0,0,0,8.367-16.336V84.178a19.513,19.513,0,1,0-39.017,0v8.808a20.076,20.076,0,0,0,8.366,16.336l.263.187v5.244l-8.472,2.594v.026l-4.848,1.484-7.576,2.5-1.149.729a13.8,13.8,0,0,0-4.524,4.694v-5.135l.263-.187a20.075,20.075,0,0,0,8.366-16.336V96.315a19.512,19.512,0,1,0-39.015,0v8.808a20.075,20.075,0,0,0,8.366,16.336l.262.187v5.07a13.824,13.824,0,0,0-4.483-4.629l-1.149-.729-5.572-1.839v0l-.153-.047-1.852-.611-5.394-1.652-.006.022-8.006-2.474v-5.244l.264-.187a20.075,20.075,0,0,0,8.366-16.336V84.178a19.513,19.513,0,1,0-39.017,0v8.808a20.073,20.073,0,0,0,8.367,16.336l.263.187v5.244l-18.959,5.805A13.93,13.93,0,0,0,53.31,134.02v64.008h48.325l-.011,12.137H181L181,198.028h48.3Z" transform="translate(-7.564 -7.99)"/></svg>