<?xml version="1.0" encoding="UTF-8"?>
<!-- Generator: Adobe Illustrator 28.0.0, SVG Export Plug-In . SVG Version: 6.00 Build 0)  -->
<svg version="1.1" id="Layer_1" xmlns="http://www.w3.org/2000/svg" xmlns:xlink="http://www.w3.org/1999/xlink" x="0px" y="0px" viewBox="0 0 124 124.5" style="enable-background:new 0 0 124 124.5;" xml:space="preserve">
<style type="text/css">
	.st0{fill:#0082C9;}
</style>
<g>
	<path id="path130_00000127749709019793712300000017104967166837618363_" class="st0" d="M93.6,10.4c-12,0-21.5,9.6-21.5,21.5l0,0   c0,12,9.6,21.5,21.5,21.5c3.9,0,7.8-1.1,11.2-3.2c2.6,1.1,8.6,4.1,10,2.9c1.4-1.3-1.7-8-2.5-10.4c1.8-3.3,2.9-7,2.9-10.8   C115.3,20,105.5,10.4,93.6,10.4L93.6,10.4z M93.6,18.5c7.4,0,13.4,6,13.4,13.4l0,0c0,7.4-6,13.4-13.4,13.4s-13.4-6-13.4-13.4   C80.2,24.6,86.2,18.5,93.6,18.5z"/>
	<path class="st0" d="M8.7,109v-6.3c0-1.3,0.3-2.5,1-3.5c0.6-1.1,1.5-1.9,2.6-2.5c2.3-1.1,4.7-2,7.1-2.6c2.4-0.6,4.9-0.9,7.3-0.9   s4.9,0.3,7.3,0.9c2.4,0.6,4.8,1.5,7.1,2.6c1.1,0.5,1.9,1.4,2.6,2.5c0.7,1.1,1,2.3,1,3.5v6.3H8.7z M49.3,109v-6.8   c0-1.7-0.5-3.3-1.4-4.8c-0.9-1.5-2.2-2.8-3.9-3.9c3.5,0.4,7,1.5,10.1,3.1c1.3,0.7,2.4,1.6,3.1,2.5s1.1,1.9,1.1,3v6.8L49.3,109   L49.3,109z M26.8,90.9c-2.5,0-4.6-0.9-6.4-2.7c-1.8-1.8-2.7-3.9-2.7-6.4c0-2.5,0.9-4.6,2.7-6.4c1.8-1.8,3.9-2.7,6.4-2.7   s4.6,0.9,6.4,2.7c1.8,1.8,2.7,3.9,2.7,6.4c0,2.5-0.9,4.6-2.7,6.4C31.4,90,29.3,90.9,26.8,90.9z M49.3,81.8c0,2.5-0.9,4.6-2.7,6.4   c-1.8,1.8-3.9,2.7-6.4,2.7c-0.4,0-0.9-0.1-1.6-0.1c-0.5-0.1-1.1-0.2-1.6-0.3c1-1.2,1.8-2.5,2.3-4c0.5-1.5,0.8-3,0.8-4.6   c0-1.6-0.3-3.1-0.8-4.6c-0.5-1.5-1.3-2.8-2.3-4c0.5-0.2,1.1-0.3,1.6-0.4c0.5-0.1,1.1-0.1,1.6-0.1c2.5,0,4.6,0.9,6.4,2.7   C48.5,77.2,49.3,79.4,49.3,81.8z"/>
	<path class="st0" d="M14,49.9c-1.2,0-2.3-0.4-3.2-1.4c-0.9-0.9-1.4-1.9-1.4-3.2v-27c0-1.3,0.4-2.3,1.4-3.2c0.9-0.9,2-1.3,3.2-1.3   h13.5l6,6h19.5c1.3,0,2.3,0.4,3.2,1.3c0.9,0.9,1.3,1.9,1.3,3.2v21.1c0,1.2-0.4,2.3-1.3,3.2c-0.9,0.9-1.9,1.4-3.2,1.4L14,49.9   L14,49.9z"/>
	<path class="st0" d="M84.4,104.8H103v-4.7H84.4V104.8z M84.4,95.5H103v-4.7H84.4V95.5z M79.7,114.1c-1.2,0-2.3-0.5-3.3-1.4   c-0.9-0.9-1.4-2.1-1.4-3.3V72.3c0-1.2,0.5-2.3,1.4-3.3c0.9-0.9,2.1-1.4,3.3-1.4h18.6l14,14v27.9c0,1.2-0.5,2.3-1.4,3.3   c-0.9,0.9-1.9,1.4-3.3,1.4H79.7z M96,83.9h11.6L96,72.3V83.9z"/>
</g>
<script xmlns=""/></svg>