<?xml version="1.0" encoding="UTF-8" standalone="no"?>
<svg
   width="400"
   height="400"
   viewBox="0 0 400 400"
   fill="none"
   version="1.1"
   id="svg41"
   sodipodi:docname="odoo-zeiterfassung.svg"
   xml:space="preserve"
   inkscape:version="1.4.2 (ebf0e940d0, 2025-05-08)"
   xmlns:inkscape="http://www.inkscape.org/namespaces/inkscape"
   xmlns:sodipodi="http://sodipodi.sourceforge.net/DTD/sodipodi-0.dtd"
   xmlns="http://www.w3.org/2000/svg"
   xmlns:svg="http://www.w3.org/2000/svg"><sodipodi:namedview
     id="namedview41"
     pagecolor="#ffffff"
     bordercolor="#000000"
     borderopacity="0.25"
     inkscape:showpageshadow="2"
     inkscape:pageopacity="0.0"
     inkscape:pagecheckerboard="0"
     inkscape:deskcolor="#d1d1d1"
     inkscape:zoom="2"
     inkscape:cx="200"
     inkscape:cy="200"
     inkscape:window-width="1920"
     inkscape:window-height="1011"
     inkscape:window-x="0"
     inkscape:window-y="0"
     inkscape:window-maximized="1"
     inkscape:current-layer="svg41" /><mask
     id="mask0_18_2"
     style="mask-type:luminance"
     maskUnits="userSpaceOnUse"
     x="99"
     y="84"
     width="71"
     height="70"><path
       fill-rule="evenodd"
       clip-rule="evenodd"
       d="M103.095 84H164.095C168.095 84 169.095 85 169.095 89V149C169.095 153 168.095 154 164.095 154H103.095C100.095 154 99.0945 153 99.0945 149V89C99.0945 85 100.095 84 103.095 84Z"
       fill="white"
       id="path1" /></mask><mask
     id="mask1_18_2"
     style="mask-type:luminance"
     maskUnits="userSpaceOnUse"
     x="99"
     y="206"
     width="71"
     height="71"><path
       fill-rule="evenodd"
       clip-rule="evenodd"
       d="M103.095 206.535H164.095C168.095 206.535 169.095 207.535 169.095 211.535V271.535C169.095 275.535 168.095 276.535 164.095 276.535H103.095C100.095 276.535 99.0945 275.535 99.0945 271.535V211.535C99.0945 207.535 100.095 206.535 103.095 206.535Z"
       fill="white"
       id="path8" /></mask><mask
     id="mask2_18_2"
     style="mask-type:luminance"
     maskUnits="userSpaceOnUse"
     x="234"
     y="206"
     width="71"
     height="71"><path
       fill-rule="evenodd"
       clip-rule="evenodd"
       d="M238.898 206.735C271.314 206.735 292.981 206.735 299.898 206.735C303.898 206.735 304.898 207.735 304.898 211.735C304.898 249.784 304.898 269.159 304.898 271.735C304.898 275.735 303.898 276.735 299.898 276.735C295.898 276.735 243.898 276.735 238.898 276.735C235.898 276.735 234.898 275.735 234.898 271.735C234.898 269.203 234.898 248.536 234.898 211.735C234.898 207.735 235.898 206.735 238.898 206.735Z"
       fill="white"
       id="path15" /></mask><mask
     id="mask3_18_2"
     style="mask-type:luminance"
     maskUnits="userSpaceOnUse"
     x="228"
     y="84"
     width="71"
     height="71"><path
       fill-rule="evenodd"
       clip-rule="evenodd"
       d="M232.745 84.2C265.161 84.2 286.829 84.2 293.745 84.2C297.745 84.2 298.745 85.2 298.745 89.2C298.745 127.249 298.745 146.624 298.745 149.2C298.745 153.2 297.745 154.2 293.745 154.2C289.745 154.2 237.745 154.2 232.745 154.2C229.745 154.2 228.745 153.2 228.745 149.2C228.745 146.668 228.745 126.001 228.745 89.2C228.745 85.2 229.745 84.2 232.745 84.2Z"
       fill="white"
       id="path22" /></mask><defs
     id="defs41"><linearGradient
       id="paint0_linear_18_2"
       x1="6970.43"
       y1="212.66"
       x2="99.0947"
       y2="7084"
       gradientUnits="userSpaceOnUse"><stop
         stop-color="#797DA5"
         id="stop32" /><stop
         offset="0.508"
         stop-color="#6D7194"
         id="stop33" /><stop
         offset="1"
         stop-color="#626584"
         id="stop34" /></linearGradient><linearGradient
       id="paint1_linear_18_2"
       x1="7099.09"
       y1="206.535"
       x2="99.0945"
       y2="7206.54"
       gradientUnits="userSpaceOnUse"><stop
         stop-color="#94B6C8"
         id="stop35" /><stop
         offset="1"
         stop-color="#6A9EBA"
         id="stop36" /></linearGradient><linearGradient
       id="paint2_linear_18_2"
       x1="7234.9"
       y1="206.735"
       x2="234.898"
       y2="7206.74"
       gradientUnits="userSpaceOnUse"><stop
         stop-color="#CDC484"
         id="stop37" /><stop
         offset="1"
         stop-color="#B5AA59"
         id="stop38" /></linearGradient><linearGradient
       id="paint3_linear_18_2"
       x1="7228.75"
       y1="84.2"
       x2="228.745"
       y2="7084.2"
       gradientUnits="userSpaceOnUse"><stop
         stop-color="#B06161"
         id="stop39" /><stop
         offset="0.4579"
         stop-color="#984E4E"
         id="stop40" /><stop
         offset="1"
         stop-color="#7C3838"
         id="stop41" /></linearGradient></defs><g
     id="g41"
     transform="matrix(1.42855,0,0,1.42855,95.98553,71.857239)"><path
       d="M 30.842,34.612 22.737,44.999 5.452,31.37 A 3.862,3.862 0 0 1 4.836,25.953 l 5.748,-7.243 20.258,15.903 z"
       fill="#985184"
       id="path1-3" /><path
       d="M 22.623,44.909 12.168,36.574 20.296,26.332 30.843,34.612 22.738,45 Z"
       fill="#005e7a"
       id="path2" /><path
       d="M 22.593,44.886 22.737,45 45.184,16.233 A 3.862,3.862 0 0 0 44.548,10.84 L 37.223,5 20.296,26.332 l 10.547,8.28 -8.105,10.387 -0.144,-0.113 z"
       fill="#1ad3bb"
       id="path3" /></g><g
     id="g42"
     transform="matrix(1.3940586,0,0,1.3940586,232.22212,78.022025)"><path
       d="M 9.096,43.956 A 25.151,25.151 0 0 1 7.516,42.473 C 6.79,41.73 6.846,40.549 7.581,39.813 l 25.95,-25.95 1.415,1.415 a 2,2 0 0 1 0,2.828 z"
       fill="#985184"
       id="path1-6" /><path
       d="M 15.849,15.808 7.363,7.322 A 25,25 0 0 1 30.948,0.708 l -15.1,15.1 z"
       fill="#fbb945"
       id="path2-7" /><path
       d="m 15.848,15.807 15.1,-15.1 a 25,25 0 0 1 11.77,6.614 L 25.04,25 15.848,15.808 Z"
       fill="#f78613"
       id="path3-5" /><path
       d="M 33.524,33.485 25.04,25 42.717,7.322 a 24.997,24.997 0 0 1 6.315,10.655 z"
       fill="#088bf5"
       id="path4" /><path
       d="M 33.525,33.485 49.033,17.977 a 25,25 0 0 1 -4.96,23.231 c -0.715,0.84 -1.988,0.836 -2.77,0.055 z"
       fill="#2ebcfa"
       id="path5" /></g><g
     id="g43"
     transform="matrix(1.2500379,0,0,1.2500379,95.74944,205.74918)"><path
       d="M 45.445,23.222 A 22.222,22.222 0 1 0 12.11,42.467 L 23.221,23.222 h 22.223 z"
       fill="#985184"
       id="path1-35" /><path
       d="M 5.313,32.53 A 22.222,22.222 0 1 0 37.889,7.533 L 26.778,26.778 Z"
       fill="#1ad3bb"
       id="path2-6" /><path
       d="m 23.221,45.444 c 12.274,0 22.223,-9.95 22.223,-22.223 0,-5.23 -1.807,-10.039 -4.832,-13.835 A 22.128,22.128 0 0 0 26.777,4.555 c -12.273,0 -22.222,9.949 -22.222,22.222 0,5.23 1.807,10.04 4.831,13.835 a 22.128,22.128 0 0 0 13.835,4.832 z"
       fill="#005e7a"
       id="path3-2" /><path
       d="m 7.719,7.303 c 0.646,-0.63 1.33,-1.22 2.05,-1.768 0.227,0.056 0.445,0.161 0.639,0.316 L 26.58,18.796 c 1.82,1.456 1.946,4.192 0.297,5.84 -1.649,1.647 -4.387,1.521 -5.845,-0.297 L 8.075,8.181 A 1.651,1.651 0 0 1 7.719,7.303 Z"
       fill="#ffffff"
       id="path4-9" /></g><g
     id="g44"
     transform="matrix(1.4285714,0,0,1.4285714,229.78571,202.92857)"><circle
       cx="18"
       cy="16"
       r="10"
       fill="#fbb945"
       id="circle1" /><path
       d="m 10.215,9.722 c 0.45,-0.557 0.96,-1.066 1.518,-1.515 l 7.479,5.999 c 0.985,0.79 1.053,2.274 0.16,3.168 -0.892,0.893 -2.375,0.825 -3.164,-0.161 l -5.993,-7.49 z"
       fill="#ffffff"
       id="path1-1" /><circle
       cx="38"
       cy="24"
       r="5"
       fill="#953b24"
       id="circle2" /><path
       d="m 16,31 h 26 a 4,4 0 0 1 4,4 v 5 a 4,4 0 0 1 -4,4 H 16 Z"
       fill="#953b24"
       id="path2-2" /><path
       d="m 4,31 h 16 c 7.18,0 13,5.82 13,13 H 17 C 9.82,44 4,38.18 4,31 Z"
       fill="#fbb945"
       id="path3-7" /></g><text
     xml:space="preserve"
     style="font-size:16px;text-align:start;writing-mode:lr-tb;direction:ltr;text-anchor:start;fill:#000000"
     x="100"
     y="170"
     id="text44"><tspan
       sodipodi:role="line"
       id="tspan44"
       x="100"
       y="170"
       style="font-style:normal;font-variant:normal;font-weight:normal;font-stretch:normal;font-size:16px;font-family:Ubuntu;-inkscape-font-specification:Ubuntu">Projekt</tspan></text><text
     xml:space="preserve"
     style="font-size:16px;text-align:start;writing-mode:lr-tb;direction:ltr;text-anchor:start;fill:#000000"
     x="75.822266"
     y="300.61719"
     id="text44-9"><tspan
       sodipodi:role="line"
       id="tspan44-3"
       x="75.822266"
       y="300.61719"
       style="font-style:normal;font-variant:normal;font-weight:normal;font-stretch:normal;font-size:16px;font-family:Ubuntu;-inkscape-font-specification:Ubuntu">Zeiterfassung</tspan></text><text
     xml:space="preserve"
     style="font-size:16px;text-align:start;writing-mode:lr-tb;direction:ltr;text-anchor:start;fill:#000000"
     x="215.96094"
     y="301.61719"
     id="text44-9-0"><tspan
       sodipodi:role="line"
       id="tspan44-3-6"
       x="215.96094"
       y="301.61719"
       style="font-style:normal;font-variant:normal;font-weight:normal;font-stretch:normal;font-size:16px;font-family:Ubuntu;-inkscape-font-specification:Ubuntu">Anwesenheit</tspan></text><text
     xml:space="preserve"
     style="font-size:16px;text-align:start;writing-mode:lr-tb;direction:ltr;text-anchor:start;fill:#000000"
     x="219.90625"
     y="173.61719"
     id="text44-9-0-6"><tspan
       sodipodi:role="line"
       id="tspan44-3-6-1"
       x="219.90625"
       y="173.61719"
       style="font-style:normal;font-variant:normal;font-weight:normal;font-stretch:normal;font-size:16px;font-family:Ubuntu;-inkscape-font-specification:Ubuntu">Abwesenheit</tspan></text></svg>
