<svg xmlns="http://www.w3.org/2000/svg" width="343.68" height="127.489" viewBox="0 0 343.68 127.489"><defs><style>.a{fill:#fff;}</style></defs><path class="a" d="M281.4,57.6c1.018-.44,1.486-.8,1.486-1.348a5.947,5.947,0,0,0-.578-2.065c-.578-1.568-.8-2.119-1.569-2.119a6.416,6.416,0,0,0-1.569.33,11.624,11.624,0,0,1-3.743.688c-2.7,0-3.936-1.6-3.936-4.321V34.952h7.266c3,0,3,0,3-2.808,0-2.862,0-2.945-3-2.945h-7.266V25.538c0-3.275,0-3.275-3.138-3.275-3.11,0-3.083,0-3.083,3.275V48.769c0,5.78,2.863,10.184,9.331,10.184a16.847,16.847,0,0,0,6.8-1.349M257.2,55.458V40.484c0-7.542-4.129-11.808-12.166-11.808-5.835,0-9.854,1.817-11.505,3a2.5,2.5,0,0,0-1.156,2.395V55.458c0,2.972,0,2.972,3.137,2.972,3.083,0,3.083,0,3.083-2.972V36.41a12.717,12.717,0,0,1,6.276-1.568c3.33,0,6.083,1.789,6.083,5.917v14.7c0,2.972,0,2.972,3.11,2.972,3.138,0,3.138,0,3.138-2.972M220.292,29.2c-3.083,0-3.083,0-3.083,3.193V55.458c0,2.972,0,2.972,3.083,2.972,3.166,0,3.166,0,3.166-2.972V32.392c0-3.193,0-3.193-3.166-3.193m3.413-7.294c0-3.386,0-3.386-3.413-3.386-3.385,0-3.385,0-3.385,3.386,0,3.5,0,3.5,3.385,3.5,3.413,0,3.413,0,3.413-3.5m-26.093,6.771a15.541,15.541,0,0,0-9.056,3.11,10.448,10.448,0,0,0-8.009-3.11,19.534,19.534,0,0,0-9.992,3,2.525,2.525,0,0,0-1.156,2.395V55.347c0,3.083,0,3.083,3.11,3.083,3.138,0,3.138,0,3.138-3.083V36.41a10.888,10.888,0,0,1,5.037-1.568c3.551,0,5.258,1.706,5.258,5.477V55.347c0,3.083,0,3.083,3.11,3.083s3.11,0,3.11-3.083V40.154a20.145,20.145,0,0,0-.22-3.3,8.439,8.439,0,0,1,5.34-2.009c3.578,0,5.174,1.9,5.174,5.532V55.347c0,3.083,0,3.083,3.083,3.083,3.138,0,3.138,0,3.138-3.083V40.016c0-7.129-3.248-11.34-11.065-11.34" transform="translate(-5.051 -4.137)"/><path class="a" d="M337.666,72.159a15.538,15.538,0,0,0-9.055,3.11,10.45,10.45,0,0,0-8.01-3.11,19.527,19.527,0,0,0-9.991,3,2.525,2.525,0,0,0-1.156,2.4V98.83c0,3.083,0,3.083,3.11,3.083,3.138,0,3.138,0,3.138-3.083V79.893a10.888,10.888,0,0,1,5.037-1.568c3.55,0,5.257,1.706,5.257,5.477V98.83c0,3.083,0,3.083,3.11,3.083s3.111,0,3.111-3.083V83.637a20.029,20.029,0,0,0-.221-3.3,8.443,8.443,0,0,1,5.34-2.009c3.578,0,5.175,1.9,5.175,5.532V98.83c0,3.083,0,3.083,3.083,3.083,3.137,0,3.137,0,3.137-3.083V83.5c0-7.129-3.248-11.34-11.065-11.34m-42,12.992H283.058c-.083-4.707,2.119-7.652,6.771-7.652,4.129,0,6.716,2.725,6.523,6.936-.027.716,0,.716-.688.716m6.441.936V84.545c0-7.459-4.9-12.386-12.331-12.386-7.019,0-12.083,4.431-12.661,11.56a57.316,57.316,0,0,0-.028,6.909c.551,6.936,5.257,11.808,13.184,11.808a21.532,21.532,0,0,0,8.671-1.844c1.293-.606,1.6-.991,1.6-1.459a5.027,5.027,0,0,0-.66-1.954C299.132,95.527,298.8,95,298.141,95a6.668,6.668,0,0,0-1.954.66,14.967,14.967,0,0,1-5.945,1.129c-4.184,0-7.184-2.23-7.184-6.414v-.688h15.606c3.028,0,3.441-.3,3.441-3.605m-31.268,15c1.018-.44,1.486-.8,1.486-1.348a5.947,5.947,0,0,0-.578-2.065c-.578-1.568-.8-2.119-1.569-2.119a6.416,6.416,0,0,0-1.569.33,11.624,11.624,0,0,1-3.743.688c-2.7,0-3.936-1.6-3.936-4.321V78.435h7.266c3,0,3,0,3-2.808,0-2.862,0-2.945-3-2.945h-7.266V69.021c0-3.275,0-3.275-3.138-3.275-3.11,0-3.083,0-3.083,3.275V92.252c0,5.78,2.863,10.184,9.331,10.184a16.847,16.847,0,0,0,6.8-1.349M237.615,72.159c-6.276,0-11.01,3.33-11.01,8.946,0,4.569,3.248,7.128,7.734,8.229,1.845.441,2.56.606,4.239.991,2.643.661,3.633,1.624,3.633,3.111,0,1.954-1.6,3.413-4.844,3.413a11.857,11.857,0,0,1-6.936-2.065,3.73,3.73,0,0,0-1.652-.8c-.633,0-.963.385-1.954,1.679-1.018,1.294-1.156,1.569-1.156,1.982,0,.633.5,1.046,1.211,1.569a16.416,16.416,0,0,0,10.432,3.22c6.221,0,10.982-3.468,10.982-9.138,0-4.431-2.614-7.046-8.119-8.423-.688-.165-2.4-.523-3.881-.88-2.78-.661-3.689-1.6-3.689-3,0-1.981,1.624-3.165,4.707-3.165a10.042,10.042,0,0,1,4.734,1.184c.964.5,1.349.825,1.9.825.579,0,.909-.357,1.845-1.569C246.781,77,247,76.673,247,76.178s-.276-.881-1.046-1.542a14.346,14.346,0,0,0-8.34-2.477m-19.955.413c-.771,0-.936.578-1.432,2.037-3.826,10.1-5.284,14.065-6.826,18.414-.055.137-.137.275-.3.275s-.247-.138-.3-.275c-2.037-5.065-3.193-8.065-7.322-18.442-.5-1.431-.688-2.064-1.486-2.064a12.163,12.163,0,0,0-2.725.8c-1.514.578-2.312.881-2.312,1.624a7.508,7.508,0,0,0,.825,2.422l9.744,22.515a15.728,15.728,0,0,1-5.5,7.294c-.936.716-1.238,1.046-1.238,1.514,0,.551.192.8,1.513,2.45,1.074,1.376,1.487,1.707,2.092,1.707a3.868,3.868,0,0,0,1.9-.964c2.78-2.037,5.5-5.725,7.431-10.377l10.157-24.3a7.519,7.519,0,0,0,.715-2.174c0-.689-.412-1.074-2.119-1.652a10.111,10.111,0,0,0-2.807-.8m-36.305-.413c-6.276,0-11.01,3.33-11.01,8.946,0,4.569,3.248,7.128,7.735,8.229,1.844.441,2.559.606,4.238.991,2.643.661,3.634,1.624,3.634,3.111,0,1.954-1.6,3.413-4.845,3.413a11.859,11.859,0,0,1-6.936-2.065,3.732,3.732,0,0,0-1.651-.8c-.633,0-.964.385-1.955,1.679-1.018,1.294-1.156,1.569-1.156,1.982,0,.633.5,1.046,1.211,1.569a16.418,16.418,0,0,0,10.432,3.22c6.221,0,10.983-3.468,10.983-9.138,0-4.431-2.615-7.046-8.12-8.423-.688-.165-2.395-.523-3.881-.88-2.78-.661-3.688-1.6-3.688-3,0-1.981,1.623-3.165,4.706-3.165a10.042,10.042,0,0,1,4.734,1.184c.964.5,1.349.825,1.9.825.578,0,.908-.357,1.844-1.569.991-1.266,1.211-1.6,1.211-2.091s-.275-.881-1.046-1.542a14.346,14.346,0,0,0-8.34-2.477" transform="translate(-5.051 -4.137)"/><path class="a" d="M102.266,104.257A17.964,17.964,0,0,1,93.74,88.195l-.011.014a32.108,32.108,0,0,1-48.359,1.8c-.007-.005-.02,0-.026-.009A15.651,15.651,0,0,0,24.4,87.459a15.987,15.987,0,0,0-3.967,21.848c.13.2.256.38.388.564a63.717,63.717,0,0,0,97.406-1.684c1-1.221,1.92-2.476,2.811-3.747a18.3,18.3,0,0,1-18.767-.183" transform="translate(-5.051 -4.137)"/><path class="a" d="M23.051,85.569A17.872,17.872,0,0,1,36.533,82.5a18.085,18.085,0,0,1,4.246,1.292A32.249,32.249,0,0,1,62.551,36.3V36.3c.262-.031.517-.086.775-.129s.539-.1.809-.138A15.654,15.654,0,0,0,76.3,18.811,16,16,0,0,0,58.959,4.926c-.134.012-.26.028-.388.042A63.725,63.725,0,0,0,15.629,103.1a18.3,18.3,0,0,1,7.422-17.534" transform="translate(-5.051 -4.137)"/><path class="a" d="M78.6,18.527a17.933,17.933,0,0,1-7.932,17.206,32.11,32.11,0,0,1,26.755,46.82,15.622,15.622,0,0,0,6.056,19.73,15.986,15.986,0,0,0,21.67-4.844c.132-.2.252-.385.37-.578l.407-.664A63.715,63.715,0,0,0,67.912,4.144,18.3,18.3,0,0,1,78.6,18.527" transform="translate(-5.051 -4.137)"/></svg>